# Blender v2.79 (sub 0) OBJ File: 'TreeFir.blend'
# www.blender.org
mtllib treefir.mtl
o Cylinder.001_Cylinder.006
v -0.000000 0.464369 -0.438923
v 0.000000 0.787135 -0.278839
v 0.167969 0.464369 -0.405512
v 0.106707 0.787135 -0.257614
v 0.310366 0.464369 -0.310366
v 0.197169 0.787135 -0.197169
v 0.405512 0.464369 -0.167969
v 0.257614 0.787135 -0.106707
v 0.438923 0.464369 0.000000
v 0.278839 0.787135 0.000000
v 0.405512 0.464369 0.167969
v 0.257614 0.787135 0.106707
v 0.310366 0.464369 0.310366
v 0.197169 0.787135 0.197169
v 0.167969 0.464369 0.405512
v 0.106707 0.787135 0.257614
v 0.000000 0.464369 0.438923
v 0.000000 0.787135 0.278839
v -0.167969 0.464369 0.405512
v -0.106707 0.787135 0.257614
v -0.310366 0.464369 0.310366
v -0.197169 0.787135 0.197169
v -0.405512 0.464369 0.167969
v -0.257614 0.787135 0.106707
v -0.438923 0.464369 -0.000000
v -0.278839 0.787135 -0.000000
v -0.405512 0.464369 -0.167969
v -0.257614 0.787135 -0.106707
v -0.310366 0.464369 -0.310366
v -0.197169 0.787135 -0.197169
v -0.167968 0.464369 -0.405512
v -0.106707 0.787135 -0.257614
v 0.000000 0.552359 -0.159655
v 0.059576 0.552359 -0.147804
v 0.110082 0.552359 -0.114057
v 0.143829 0.552359 -0.063551
v 0.155680 0.552359 -0.003975
v 0.143829 0.552359 0.055601
v 0.110082 0.552359 0.106108
v 0.059576 0.552359 0.139855
v 0.000000 0.552359 0.151705
v -0.059576 0.552359 0.139855
v -0.110082 0.552359 0.106108
v -0.143829 0.552359 0.055601
v -0.155680 0.552359 -0.003975
v -0.143829 0.552359 -0.063551
v -0.110082 0.552359 -0.114057
v -0.059576 0.552359 -0.147804
v -0.000000 1.528392 -0.165084
v 0.000000 1.830340 0.000000
v 0.063175 1.528392 -0.152517
v 0.000000 1.830340 0.000000
v 0.116732 1.528392 -0.116732
v 0.000000 1.830340 0.000000
v 0.152517 1.528392 -0.063175
v 0.000000 1.830340 0.000000
v 0.165083 1.528392 0.000000
v 0.000000 1.830340 0.000000
v 0.152517 1.528392 0.063175
v 0.000000 1.830340 0.000000
v 0.116732 1.528392 0.116732
v 0.000000 1.830340 0.000000
v 0.063175 1.528392 0.152517
v 0.000000 1.830340 0.000000
v 0.000000 1.528392 0.165084
v 0.000000 1.830340 0.000000
v -0.063175 1.528392 0.152517
v 0.000000 1.830340 0.000000
v -0.116732 1.528392 0.116732
v 0.000000 1.830340 0.000000
v -0.152517 1.528392 0.063175
v 0.000000 1.830340 0.000000
v -0.165084 1.528392 -0.000000
v 0.000000 1.830340 0.000000
v -0.152517 1.528392 -0.063175
v 0.000000 1.830340 0.000000
v -0.116732 1.528392 -0.116732
v 0.000000 1.830340 0.000000
v -0.063175 1.528392 -0.152517
v 0.000000 1.830340 0.000000
v 0.000000 1.561486 -0.060048
v 0.022407 1.561486 -0.055591
v 0.041403 1.561486 -0.042898
v 0.054096 1.561486 -0.023902
v 0.058553 1.561486 -0.001495
v 0.054096 1.561486 0.020912
v 0.041403 1.561486 0.039908
v 0.022407 1.561486 0.052601
v 0.000000 1.561486 0.057058
v -0.022407 1.561486 0.052601
v -0.041403 1.561486 0.039908
v -0.054096 1.561486 0.020912
v -0.058553 1.561486 -0.001495
v -0.054096 1.561486 -0.023902
v -0.041403 1.561486 -0.042898
v -0.022407 1.561486 -0.055591
v -0.000000 1.293153 -0.244501
v 0.000000 1.566448 -0.099177
v 0.093567 1.293153 -0.225890
v 0.037954 1.566448 -0.091628
v 0.172889 1.293153 -0.172889
v 0.070129 1.566448 -0.070129
v 0.225890 1.293153 -0.093567
v 0.091628 1.566448 -0.037953
v 0.244501 1.293153 0.000000
v 0.099177 1.566448 0.000000
v 0.225890 1.293153 0.093567
v 0.091628 1.566448 0.037954
v 0.172889 1.293153 0.172889
v 0.070129 1.566448 0.070129
v 0.093567 1.293153 0.225890
v 0.037954 1.566448 0.091628
v 0.000000 1.293153 0.244501
v 0.000000 1.566448 0.099177
v -0.093567 1.293153 0.225890
v -0.037953 1.566448 0.091628
v -0.172889 1.293153 0.172889
v -0.070129 1.566448 0.070129
v -0.225890 1.293153 0.093567
v -0.091628 1.566448 0.037954
v -0.244501 1.293153 -0.000000
v -0.099177 1.566448 -0.000000
v -0.225890 1.293153 -0.093567
v -0.091628 1.566448 -0.037954
v -0.172889 1.293153 -0.172889
v -0.070129 1.566448 -0.070129
v -0.093567 1.293153 -0.225890
v -0.037953 1.566448 -0.091628
v 0.000000 1.356719 -0.088935
v 0.033187 1.356719 -0.082334
v 0.061321 1.356719 -0.063535
v 0.080120 1.356719 -0.035401
v 0.086721 1.356719 -0.002214
v 0.080120 1.356719 0.030973
v 0.061321 1.356719 0.059107
v 0.033187 1.356719 0.077906
v 0.000000 1.356719 0.084507
v -0.033187 1.356719 0.077906
v -0.061321 1.356719 0.059107
v -0.080120 1.356719 0.030973
v -0.086721 1.356719 -0.002214
v -0.080120 1.356719 -0.035401
v -0.061321 1.356719 -0.063535
v -0.033187 1.356719 -0.082334
v -0.000000 0.998231 -0.324352
v 0.000000 1.368442 -0.153009
v 0.124124 0.998231 -0.299663
v 0.058554 1.368442 -0.141362
v 0.229352 0.998231 -0.229352
v 0.108194 1.368442 -0.108194
v 0.299663 0.998231 -0.124124
v 0.141362 1.368442 -0.058554
v 0.324352 0.998231 0.000000
v 0.153009 1.368442 0.000000
v 0.299663 0.998231 0.124124
v 0.141362 1.368442 0.058554
v 0.229352 0.998231 0.229352
v 0.108194 1.368442 0.108194
v 0.124124 0.998231 0.299663
v 0.058554 1.368442 0.141362
v 0.000000 0.998231 0.324352
v 0.000000 1.368442 0.153009
v -0.124124 0.998231 0.299663
v -0.058554 1.368442 0.141362
v -0.229352 0.998231 0.229352
v -0.108194 1.368442 0.108194
v -0.299663 0.998231 0.124124
v -0.141362 1.368442 0.058554
v -0.324352 0.998231 -0.000000
v -0.153009 1.368442 -0.000000
v -0.299663 0.998231 -0.124124
v -0.141362 1.368442 -0.058554
v -0.229352 0.998231 -0.229352
v -0.108194 1.368442 -0.108194
v -0.124124 0.998231 -0.299663
v -0.058554 1.368442 -0.141362
v 0.000000 1.099155 -0.117980
v 0.044025 1.099155 -0.109223
v 0.081348 1.099155 -0.084285
v 0.106286 1.099155 -0.046962
v 0.115043 1.099155 -0.002937
v 0.106286 1.099155 0.041088
v 0.081348 1.099155 0.078411
v 0.044025 1.099155 0.103349
v 0.000000 1.099155 0.112106
v -0.044025 1.099155 0.103349
v -0.081348 1.099155 0.078411
v -0.106286 1.099155 0.041088
v -0.115043 1.099155 -0.002937
v -0.106286 1.099155 -0.046962
v -0.081348 1.099155 -0.084285
v -0.044025 1.099155 -0.109223
v -0.000000 0.726280 -0.386141
v 0.000000 1.086580 -0.215512
v 0.147770 0.726280 -0.356747
v 0.082473 1.086580 -0.199107
v 0.273043 0.726280 -0.273043
v 0.152390 1.086580 -0.152390
v 0.356747 0.726280 -0.147770
v 0.199107 1.086580 -0.082473
v 0.386141 0.726280 0.000000
v 0.215512 1.086580 0.000000
v 0.356747 0.726280 0.147770
v 0.199107 1.086580 0.082473
v 0.273043 0.726280 0.273043
v 0.152390 1.086580 0.152390
v 0.147770 0.726280 0.356747
v 0.082473 1.086580 0.199107
v 0.000000 0.726280 0.386141
v 0.000000 1.086580 0.215512
v -0.147770 0.726280 0.356747
v -0.082473 1.086580 0.199107
v -0.273043 0.726280 0.273043
v -0.152390 1.086580 0.152390
v -0.356747 0.726280 0.147770
v -0.199107 1.086580 0.082473
v -0.386141 0.726280 -0.000000
v -0.215512 1.086580 -0.000000
v -0.356747 0.726280 -0.147770
v -0.199107 1.086580 -0.082473
v -0.273043 0.726280 -0.273043
v -0.152390 1.086580 -0.152390
v -0.147769 0.726280 -0.356748
v -0.082473 1.086580 -0.199107
v 0.000000 0.824503 -0.140455
v 0.052412 0.824503 -0.130030
v 0.096844 0.824503 -0.100341
v 0.126533 0.824503 -0.055908
v 0.136959 0.824503 -0.003497
v 0.126533 0.824503 0.048915
v 0.096844 0.824503 0.093348
v 0.052412 0.824503 0.123037
v 0.000000 0.824503 0.133462
v -0.052412 0.824503 0.123037
v -0.096844 0.824503 0.093348
v -0.126533 0.824503 0.048915
v -0.136959 0.824503 -0.003497
v -0.126533 0.824503 -0.055908
v -0.096844 0.824503 -0.100341
v -0.052412 0.824503 -0.130030
v 0.000000 0.790830 0.081545
v 0.000000 -0.000026 0.081545
v -0.031206 0.790830 0.075338
v -0.031206 -0.000026 0.075338
v -0.057661 0.790830 0.057661
v -0.057661 -0.000026 0.057661
v -0.075338 0.790830 0.031206
v -0.075338 -0.000026 0.031206
v -0.081545 0.790830 -0.000000
v -0.081545 -0.000026 -0.000000
v -0.075338 0.790830 -0.031206
v -0.075338 -0.000026 -0.031206
v -0.057661 0.790830 -0.057661
v -0.057661 -0.000026 -0.057661
v -0.031206 0.790830 -0.075338
v -0.031206 -0.000026 -0.075338
v -0.000000 0.790830 -0.081545
v -0.000000 -0.000026 -0.081545
v 0.031206 0.790830 -0.075338
v 0.031206 -0.000026 -0.075338
v 0.057661 0.790830 -0.057661
v 0.057661 -0.000026 -0.057661
v 0.075338 0.790830 -0.031206
v 0.075338 -0.000026 -0.031206
v 0.081545 0.790830 0.000000
v 0.081545 -0.000026 0.000000
v 0.075338 0.790830 0.031206
v 0.075338 -0.000026 0.031206
v 0.057661 0.790830 0.057661
v 0.057661 -0.000026 0.057661
v 0.031206 0.790830 0.075338
v 0.031206 -0.000026 0.075338
vn 0.0000 -0.5987 -0.8009
vn 0.0000 0.4443 -0.8958
vn 0.3428 0.4443 -0.8277
vn 0.3063 -0.5986 -0.7401
vn 0.6334 0.4443 -0.6334
vn 0.5663 -0.5983 -0.5668
vn 0.8277 0.4443 -0.3428
vn 0.7404 -0.5979 -0.3072
vn 0.8958 0.4443 0.0000
vn 0.8020 -0.5973 -0.0005
vn 0.8277 0.4443 0.3428
vn 0.7415 -0.5968 0.3066
vn 0.6334 0.4443 0.6334
vn 0.5679 -0.5963 0.5674
vn 0.3428 0.4443 0.8277
vn 0.3074 -0.5960 0.7418
vn 0.0000 0.4443 0.8958
vn 0.0000 -0.5959 0.8030
vn -0.3428 0.4443 0.8277
vn -0.3074 -0.5960 0.7418
vn -0.6334 0.4443 0.6334
vn -0.5679 -0.5963 0.5674
vn -0.8277 0.4443 0.3428
vn -0.7415 -0.5968 0.3066
vn -0.8958 0.4443 0.0000
vn -0.8020 -0.5973 -0.0005
vn -0.8277 0.4443 -0.3428
vn -0.7404 -0.5979 -0.3072
vn -0.6334 0.4443 -0.6334
vn -0.5663 -0.5983 -0.5668
vn -0.3428 0.4443 -0.8277
vn -0.3063 -0.5986 -0.7401
vn -0.1124 -0.9560 -0.2708
vn -0.2082 -0.9558 -0.2076
vn 0.2967 -0.9550 0.0006
vn 0.2730 -0.9554 -0.1125
vn -0.2730 -0.9554 -0.1125
vn -0.2967 -0.9550 0.0006
vn 0.2082 -0.9558 -0.2076
vn 0.1124 -0.9560 -0.2708
vn 0.1147 -0.9539 0.2774
vn 0.2114 -0.9541 0.2120
vn -0.2752 -0.9545 0.1146
vn -0.2114 -0.9541 0.2120
vn 0.0000 -0.9561 -0.2929
vn -0.1147 -0.9539 0.2774
vn 0.0000 -0.9538 0.3005
vn 0.2752 -0.9545 0.1146
vn 0.0000 -0.5836 -0.8120
vn 0.0000 0.4797 -0.8774
vn 0.3458 0.4797 -0.8064
vn 0.3106 -0.5835 -0.7504
vn 0.6050 0.4796 -0.6355
vn 0.5741 -0.5832 -0.5747
vn 0.8057 0.4797 -0.3474
vn 0.7506 -0.5827 -0.3114
vn 0.8774 0.4797 0.0000
vn 0.8130 -0.5821 -0.0005
vn 0.7976 0.4794 0.3659
vn 0.7517 -0.5816 0.3108
vn 0.6050 0.4796 0.6355
vn 0.5757 -0.5811 0.5752
vn 0.3458 0.4797 0.8064
vn 0.3117 -0.5808 0.7519
vn 0.0000 0.4797 0.8774
vn 0.0000 -0.5807 0.8141
vn -0.3268 0.4797 0.8143
vn -0.3117 -0.5808 0.7519
vn -0.6261 0.4797 0.6147
vn -0.5757 -0.5811 0.5752
vn -0.8215 0.4795 0.3086
vn -0.7517 -0.5816 0.3108
vn -0.8774 0.4797 0.0000
vn -0.8130 -0.5821 -0.0005
vn -0.8250 0.4793 -0.2993
vn -0.7506 -0.5827 -0.3114
vn -0.6326 0.4796 -0.6081
vn -0.5741 -0.5832 -0.5747
vn -0.3268 0.4797 -0.8143
vn -0.3106 -0.5835 -0.7504
vn 0.0000 -0.6175 -0.7866
vn 0.0000 0.4695 -0.8829
vn 0.3379 0.4695 -0.8157
vn 0.3008 -0.6174 -0.7269
vn 0.6243 0.4695 -0.6243
vn 0.5561 -0.6170 -0.5568
vn 0.8157 0.4695 -0.3379
vn 0.7272 -0.6164 -0.3020
vn 0.8829 0.4695 0.0000
vn 0.7879 -0.6157 -0.0007
vn 0.8157 0.4695 0.3379
vn 0.7287 -0.6151 0.3011
vn 0.6243 0.4695 0.6243
vn 0.5582 -0.6146 0.5575
vn 0.3379 0.4695 0.8157
vn 0.3022 -0.6142 0.7290
vn 0.0000 0.4695 0.8829
vn 0.0000 -0.6141 0.7892
vn -0.3379 0.4695 0.8157
vn -0.3022 -0.6142 0.7290
vn -0.6243 0.4695 0.6243
vn -0.5582 -0.6146 0.5575
vn -0.8157 0.4695 0.3379
vn -0.7287 -0.6151 0.3011
vn -0.8829 0.4695 0.0000
vn -0.7879 -0.6157 -0.0007
vn -0.8157 0.4695 -0.3379
vn -0.7272 -0.6164 -0.3020
vn -0.6243 0.4695 -0.6243
vn -0.5561 -0.6170 -0.5568
vn -0.3379 0.4695 -0.8157
vn -0.3008 -0.6174 -0.7269
vn -0.1417 -0.9292 -0.3413
vn -0.2623 -0.9288 -0.2616
vn 0.3737 -0.9275 0.0007
vn 0.3439 -0.9282 -0.1417
vn -0.3439 -0.9282 -0.1417
vn -0.3737 -0.9275 0.0007
vn 0.2623 -0.9288 -0.2616
vn 0.1417 -0.9292 -0.3413
vn 0.1444 -0.9258 0.3492
vn 0.2661 -0.9262 0.2669
vn -0.3466 -0.9268 0.1443
vn -0.2661 -0.9262 0.2669
vn 0.0000 -0.9293 -0.3692
vn -0.1444 -0.9258 0.3492
vn 0.0000 -0.9257 0.3782
vn 0.3466 -0.9268 0.1443
vn 0.0000 -0.6605 -0.7508
vn 0.0000 0.4200 -0.9075
vn 0.3473 0.4200 -0.8384
vn 0.2871 -0.6604 -0.6939
vn 0.6417 0.4200 -0.6417
vn 0.5308 -0.6599 -0.5317
vn 0.8384 0.4200 -0.3473
vn 0.6943 -0.6593 -0.2884
vn 0.9075 0.4200 0.0000
vn 0.7524 -0.6586 -0.0008
vn 0.8384 0.4200 0.3473
vn 0.6960 -0.6579 0.2875
vn 0.6417 0.4200 0.6417
vn 0.5333 -0.6573 0.5325
vn 0.3473 0.4200 0.8384
vn 0.2888 -0.6569 0.6964
vn 0.0000 0.4200 0.9075
vn 0.0000 -0.6568 0.7541
vn -0.3473 0.4200 0.8384
vn -0.2888 -0.6569 0.6964
vn -0.6417 0.4200 0.6417
vn -0.5333 -0.6573 0.5325
vn -0.8384 0.4200 0.3473
vn -0.6960 -0.6579 0.2875
vn -0.9075 0.4200 0.0000
vn -0.7524 -0.6586 -0.0008
vn -0.8384 0.4200 -0.3473
vn -0.6943 -0.6593 -0.2884
vn -0.6417 0.4200 -0.6417
vn -0.5308 -0.6599 -0.5317
vn -0.3473 0.4200 -0.8384
vn -0.2871 -0.6604 -0.6939
vn -0.1647 -0.9029 -0.3970
vn -0.3051 -0.9024 -0.3042
vn 0.4343 -0.9007 0.0008
vn 0.3998 -0.9016 -0.1648
vn -0.3998 -0.9016 -0.1648
vn -0.4343 -0.9007 0.0008
vn 0.3051 -0.9024 -0.3042
vn 0.1647 -0.9029 -0.3970
vn 0.1677 -0.8985 0.4056
vn 0.3092 -0.8990 0.3100
vn -0.4027 -0.8998 0.1676
vn -0.3092 -0.8990 0.3100
vn 0.0000 -0.9031 -0.4294
vn -0.1677 -0.8985 0.4056
vn 0.0000 -0.8983 0.4393
vn 0.4027 -0.8998 0.1676
vn 0.0000 -0.6319 -0.7750
vn 0.0000 0.4280 -0.9038
vn 0.3458 0.4280 -0.8350
vn 0.2964 -0.6318 -0.7162
vn 0.6391 0.4280 -0.6391
vn 0.5480 -0.6314 -0.5487
vn 0.8350 0.4280 -0.3458
vn 0.7166 -0.6308 -0.2975
vn 0.9038 0.4280 0.0000
vn 0.7764 -0.6302 -0.0006
vn 0.8350 0.4280 0.3458
vn 0.7180 -0.6296 0.2967
vn 0.6391 0.4280 0.6391
vn 0.5500 -0.6290 0.5493
vn 0.3458 0.4280 0.8350
vn 0.2978 -0.6287 0.7183
vn 0.0000 0.4280 0.9038
vn 0.0000 -0.6286 0.7777
vn -0.3458 0.4280 0.8350
vn -0.2978 -0.6287 0.7183
vn -0.6391 0.4280 0.6391
vn -0.5500 -0.6290 0.5493
vn -0.8350 0.4280 0.3458
vn -0.7180 -0.6296 0.2967
vn -0.9038 0.4280 0.0000
vn -0.7764 -0.6302 -0.0006
vn -0.8350 0.4280 -0.3458
vn -0.7166 -0.6308 -0.2975
vn -0.6391 0.4280 -0.6391
vn -0.5480 -0.6314 -0.5487
vn -0.3458 0.4280 -0.8350
vn -0.2964 -0.6318 -0.7162
vn -0.1390 -0.9319 -0.3349
vn -0.2574 -0.9315 -0.2567
vn 0.3667 -0.9303 0.0007
vn 0.3375 -0.9310 -0.1391
vn -0.3375 -0.9310 -0.1391
vn -0.3667 -0.9303 0.0007
vn 0.2574 -0.9315 -0.2567
vn 0.1390 -0.9319 -0.3349
vn 0.1417 -0.9287 0.3427
vn 0.2612 -0.9290 0.2619
vn -0.3401 -0.9296 0.1416
vn -0.2612 -0.9290 0.2619
vn 0.0000 -0.9320 -0.3623
vn -0.1417 -0.9287 0.3427
vn 0.0000 -0.9285 0.3712
vn 0.3401 -0.9296 0.1416
vn 0.0000 0.0000 1.0000
vn -0.3827 0.0000 0.9239
vn -0.7071 0.0000 0.7071
vn -0.9239 0.0000 0.3827
vn -1.0000 0.0000 0.0000
vn -0.9239 0.0000 -0.3827
vn -0.7071 0.0000 -0.7071
vn -0.3827 0.0000 -0.9239
vn 0.0000 0.0000 -1.0000
vn 0.3827 0.0000 -0.9239
vn 0.7071 0.0000 -0.7071
vn 0.9239 0.0000 -0.3827
vn 1.0000 0.0000 0.0000
vn 0.9239 0.0000 0.3827
vn 0.7071 0.0000 0.7071
vn 0.3827 0.0000 0.9239
usemtl Leaves
s 1
f 1//1 2//2 4//3 3//4
f 3//4 4//3 6//5 5//6
f 5//6 6//5 8//7 7//8
f 7//8 8//7 10//9 9//10
f 9//10 10//9 12//11 11//12
f 11//12 12//11 14//13 13//14
f 13//14 14//13 16//15 15//16
f 15//16 16//15 18//17 17//18
f 17//18 18//17 20//19 19//20
f 19//20 20//19 22//21 21//22
f 21//22 22//21 24//23 23//24
f 23//24 24//23 26//25 25//26
f 25//26 26//25 28//27 27//28
f 27//28 28//27 30//29 29//30
f 29//30 30//29 32//31 31//32
f 31//32 32//31 2//2 1//1
f 13//14 15//16 40//33 39//34
f 23//24 25//26 45//35 44//36
f 9//10 11//12 38//37 37//38
f 19//20 21//22 43//39 42//40
f 29//30 31//32 48//41 47//42
f 5//6 7//8 36//43 35//44
f 15//16 17//18 41//45 40//33
f 1//1 3//4 34//46 33//47
f 25//26 27//28 46//48 45//35
f 11//12 13//14 39//34 38//37
f 21//22 23//24 44//36 43//39
f 31//32 1//1 33//47 48//41
f 7//8 9//10 37//38 36//43
f 17//18 19//20 42//40 41//45
f 27//28 29//30 47//42 46//48
f 3//4 5//6 35//44 34//46
f 49//49 50//50 52//51 51//52
f 51//52 52//51 54//53 53//54
f 53//54 54//53 56//55 55//56
f 55//56 56//55 58//57 57//58
f 57//58 58//57 60//59 59//60
f 59//60 60//59 62//61 61//62
f 61//62 62//61 64//63 63//64
f 63//64 64//63 66//65 65//66
f 65//66 66//65 68//67 67//68
f 67//68 68//67 70//69 69//70
f 69//70 70//69 72//71 71//72
f 71//72 72//71 74//73 73//74
f 73//74 74//73 76//75 75//76
f 75//76 76//75 78//77 77//78
f 77//78 78//77 80//79 79//80
f 79//80 80//79 50//50 49//49
f 61//62 63//64 88//33 87//34
f 71//72 73//74 93//35 92//36
f 57//58 59//60 86//37 85//38
f 67//68 69//70 91//39 90//40
f 77//78 79//80 96//41 95//42
f 53//54 55//56 84//43 83//44
f 63//64 65//66 89//45 88//33
f 49//49 51//52 82//46 81//47
f 73//74 75//76 94//48 93//35
f 59//60 61//62 87//34 86//37
f 69//70 71//72 92//36 91//39
f 79//80 49//49 81//47 96//41
f 55//56 57//58 85//38 84//43
f 65//66 67//68 90//40 89//45
f 75//76 77//78 95//42 94//48
f 51//52 53//54 83//44 82//46
f 97//81 98//82 100//83 99//84
f 99//84 100//83 102//85 101//86
f 101//86 102//85 104//87 103//88
f 103//88 104//87 106//89 105//90
f 105//90 106//89 108//91 107//92
f 107//92 108//91 110//93 109//94
f 109//94 110//93 112//95 111//96
f 111//96 112//95 114//97 113//98
f 113//98 114//97 116//99 115//100
f 115//100 116//99 118//101 117//102
f 117//102 118//101 120//103 119//104
f 119//104 120//103 122//105 121//106
f 121//106 122//105 124//107 123//108
f 123//108 124//107 126//109 125//110
f 125//110 126//109 128//111 127//112
f 127//112 128//111 98//82 97//81
f 109//94 111//96 136//113 135//114
f 119//104 121//106 141//115 140//116
f 105//90 107//92 134//117 133//118
f 115//100 117//102 139//119 138//120
f 125//110 127//112 144//121 143//122
f 101//86 103//88 132//123 131//124
f 111//96 113//98 137//125 136//113
f 97//81 99//84 130//126 129//127
f 121//106 123//108 142//128 141//115
f 107//92 109//94 135//114 134//117
f 117//102 119//104 140//116 139//119
f 127//112 97//81 129//127 144//121
f 103//88 105//90 133//118 132//123
f 113//98 115//100 138//120 137//125
f 123//108 125//110 143//122 142//128
f 99//84 101//86 131//124 130//126
f 145//129 146//130 148//131 147//132
f 147//132 148//131 150//133 149//134
f 149//134 150//133 152//135 151//136
f 151//136 152//135 154//137 153//138
f 153//138 154//137 156//139 155//140
f 155//140 156//139 158//141 157//142
f 157//142 158//141 160//143 159//144
f 159//144 160//143 162//145 161//146
f 161//146 162//145 164//147 163//148
f 163//148 164//147 166//149 165//150
f 165//150 166//149 168//151 167//152
f 167//152 168//151 170//153 169//154
f 169//154 170//153 172//155 171//156
f 171//156 172//155 174//157 173//158
f 173//158 174//157 176//159 175//160
f 175//160 176//159 146//130 145//129
f 157//142 159//144 184//161 183//162
f 167//152 169//154 189//163 188//164
f 153//138 155//140 182//165 181//166
f 163//148 165//150 187//167 186//168
f 173//158 175//160 192//169 191//170
f 149//134 151//136 180//171 179//172
f 159//144 161//146 185//173 184//161
f 145//129 147//132 178//174 177//175
f 169//154 171//156 190//176 189//163
f 155//140 157//142 183//162 182//165
f 165//150 167//152 188//164 187//167
f 175//160 145//129 177//175 192//169
f 151//136 153//138 181//166 180//171
f 161//146 163//148 186//168 185//173
f 171//156 173//158 191//170 190//176
f 147//132 149//134 179//172 178//174
f 193//177 194//178 196//179 195//180
f 195//180 196//179 198//181 197//182
f 197//182 198//181 200//183 199//184
f 199//184 200//183 202//185 201//186
f 201//186 202//185 204//187 203//188
f 203//188 204//187 206//189 205//190
f 205//190 206//189 208//191 207//192
f 207//192 208//191 210//193 209//194
f 209//194 210//193 212//195 211//196
f 211//196 212//195 214//197 213//198
f 213//198 214//197 216//199 215//200
f 215//200 216//199 218//201 217//202
f 217//202 218//201 220//203 219//204
f 219//204 220//203 222//205 221//206
f 221//206 222//205 224//207 223//208
f 223//208 224//207 194//178 193//177
f 205//190 207//192 232//209 231//210
f 215//200 217//202 237//211 236//212
f 201//186 203//188 230//213 229//214
f 211//196 213//198 235//215 234//216
f 221//206 223//208 240//217 239//218
f 197//182 199//184 228//219 227//220
f 207//192 209//194 233//221 232//209
f 193//177 195//180 226//222 225//223
f 217//202 219//204 238//224 237//211
f 203//188 205//190 231//210 230//213
f 213//198 215//200 236//212 235//215
f 223//208 193//177 225//223 240//217
f 199//184 201//186 229//214 228//219
f 209//194 211//196 234//216 233//221
f 219//204 221//206 239//218 238//224
f 195//180 197//182 227//220 226//222
usemtl Trunk
f 241//225 243//226 244//226 242//225
f 243//226 245//227 246//227 244//226
f 245//227 247//228 248//228 246//227
f 247//228 249//229 250//229 248//228
f 249//229 251//230 252//230 250//229
f 251//230 253//231 254//231 252//230
f 253//231 255//232 256//232 254//231
f 255//232 257//233 258//233 256//232
f 257//233 259//234 260//234 258//233
f 259//234 261//235 262//235 260//234
f 261//235 263//236 264//236 262//235
f 263//236 265//237 266//237 264//236
f 265//237 267//238 268//238 266//237
f 267//238 269//239 270//239 268//238
f 269//239 271//240 272//240 270//239
f 271//240 241//225 242//225 272//240
