# Blender v2.79 (sub 0) OBJ File: ''
# www.blender.org
mtllib houseRoof2.mtl
o Mesh1_Group1_Model.008
v 0.245385 0.312772 -0.511093
v 0.000000 0.410683 -0.719970
v 0.000000 0.410683 -0.112288
v 0.245385 0.312772 -0.112288
v 0.500000 0.518750 -0.950513
v 0.245385 0.125832 -0.112288
v 0.500000 0.017765 0.118257
v -0.500000 0.017765 0.118257
v -0.245385 0.125832 -0.112288
v -0.500000 0.518750 -0.950513
v -0.245385 0.312772 -0.511093
v -0.245385 0.362772 -0.617760
v -0.245385 0.312772 -0.112288
v -0.245385 0.312772 -0.062288
v -0.245385 0.362772 -0.062288
v 0.245385 0.362772 -0.617760
v 0.245385 0.362772 -0.062288
v 0.245385 0.312772 -0.062288
v 0.000000 0.460683 -0.826636
v 0.000000 0.460683 -0.062288
v 0.000000 0.410683 -0.062288
v 0.500000 0.518750 -1.000513
v -0.500000 0.518750 -1.000513
v 0.500000 -0.042443 0.090037
v 0.500000 0.000000 -0.000513
v 0.500000 0.468750 -1.000513
v -0.500000 -0.042443 0.090037
v -0.500000 0.468750 -1.000513
v -0.500000 0.000000 -0.000513
v 0.180412 0.268743 -0.162288
v 0.000000 0.340728 -0.162288
v -0.180412 0.268743 -0.162288
v -0.180412 0.190805 -0.162288
v 0.180412 0.190805 -0.162288
v -0.180412 0.190805 -0.112288
v 0.180412 0.190805 -0.112288
v 0.180412 0.268743 -0.112288
v 0.000000 0.340728 -0.112288
v -0.180412 0.268743 -0.112288
v -0.500000 0.000000 -1.000513
v 0.500000 0.000000 -1.000513
vt -12.582200 10.580400
vt -19.684999 13.414500
vt -26.787901 10.580400
vt -26.787901 7.512010
vt -12.582200 7.512010
vt -19.268499 13.873900
vt -11.045000 24.275400
vt -34.969501 24.275400
vt -34.969501 13.873900
vt -10.024200 -12.220400
vt -0.000000 6.885910
vt -19.684999 -3.138290
vt -10.024200 -29.560801
vt -0.000000 -39.584999
vt -39.370098 -39.584999
vt -29.345900 -29.560801
vt -39.370098 6.885910
vt -29.345900 -12.220400
vt 15.069000 14.282400
vt 19.268499 12.313900
vt 34.969501 12.313900
vt 36.938000 12.313900
vt 36.938000 14.282400
vt 11.045000 -12.291300
vt 19.268499 -22.692801
vt 34.969501 -22.692801
vt 34.969501 -12.291300
vt -19.268499 12.313900
vt -15.069000 14.282400
vt -36.938000 14.282400
vt -36.938000 12.313900
vt -34.969501 12.313900
vt -15.069000 14.603400
vt -6.845530 25.004900
vt -36.938000 25.004900
vt -36.938000 14.603400
vt 6.845530 -11.561800
vt 15.069000 -21.963301
vt 36.938000 -21.963301
vt 36.938000 -11.561800
vt -10.024200 14.282400
vt -19.684999 18.137100
vt -19.684999 16.168600
vt -10.024200 12.313900
vt -34.969501 -22.692801
vt -34.969501 -12.291300
vt -36.938000 -12.291300
vt -36.938000 -22.692801
vt 34.969501 24.275400
vt 34.969501 13.873900
vt 36.938000 13.873900
vt 36.938000 24.275400
vt -1.968500 39.370098
vt -1.968500 0.000000
vt 0.000000 0.000000
vt 0.000000 39.370098
vt -1.968500 20.423201
vt -44.046001 0.699401
vt -42.934898 -1.671000
vt -39.370098 0.000000
vt 0.000000 18.454700
vt 0.000000 20.423201
vt 0.000000 16.709999
vt 0.000000 19.327900
vt -39.370098 19.327900
vt -39.370098 16.709999
vt 0.000000 18.454700
vt 39.370098 -0.000000
vt 42.934898 -1.671000
vt 44.046001 0.699401
vt 1.968500 20.423201
vt 0.000000 20.423201
vt 39.370098 -35.647999
vt 0.000000 -35.647999
vt 0.000000 -39.584999
vt 39.370098 -39.584999
vt -29.345900 14.282400
vt -29.345900 12.313900
vt -34.969501 26.787901
vt -34.969501 12.582200
vt -33.000999 12.582200
vt -33.000999 26.787901
vt -29.345900 4.954010
vt -12.582200 7.512010
vt -26.787901 7.512010
vt -10.024200 4.954010
vt -12.582200 10.580400
vt -10.024200 12.313900
vt -19.684999 16.168600
vt 34.969501 4.954010
vt -34.969501 4.954010
vt -19.684999 13.414500
vt -29.345900 12.313900
vt 34.969501 15.607300
vt 34.969501 23.254700
vt 33.000999 23.254700
vt 33.000999 15.607300
vt -34.969501 -13.312000
vt -34.969501 -20.959299
vt -33.000999 -20.959299
vt -33.000999 -13.312000
vt -26.787901 10.580400
vt -34.969501 10.580400
vt -34.969501 7.512010
vt -33.000999 7.512010
vt -33.000999 10.580400
vt 34.969501 7.512010
vt 34.969501 10.580400
vt 33.000999 10.580400
vt 33.000999 7.512010
vt 0.000000 -0.000000
vt 0.000000 0.000000
vt 39.370098 0.000000
vt 39.370098 39.370098
vt 0.000000 39.370098
vt 39.370098 0.000000
vt 39.370098 18.454700
vt 39.370098 20.423201
vn 0.0000 -0.0000 1.0000
vn 0.3706 0.9288 0.0000
vn 0.0000 0.9055 0.4244
vn -1.0000 0.0000 0.0000
vn -0.3706 0.9288 0.0000
vn 1.0000 0.0000 0.0000
vn 0.3706 -0.9288 -0.0000
vn -0.3706 -0.9288 -0.0000
vn 0.0000 1.0000 0.0000
vn 0.0000 -0.4244 0.9055
vn 0.0000 -0.9055 -0.4244
vn 0.0000 -1.0000 -0.0000
vn 0.0000 0.0000 -1.0000
usemtl Glass.005
s 1
f 30/1/1 31/2/1 32/3/1 33/4/1 34/5/1
usemtl Roof.001
f 1/6/2 2/7/2 3/8/2 4/9/2
f 1/10/3 5/11/3 2/12/3
f 6/13/3 5/11/3 1/10/3
f 6/13/3 7/14/3 5/11/3
f 7/14/3 6/13/3 8/15/3
f 9/16/3 8/15/3 6/13/3
f 8/15/3 9/16/3 10/17/3
f 10/17/3 9/16/3 11/18/3
f 12/19/4 11/20/4 13/21/4 14/22/4 15/23/4
f 2/24/5 11/25/5 13/26/5 3/27/5
f 10/17/3 11/18/3 2/12/3
f 1/10/3 2/12/3 11/18/3 9/16/3 6/13/3
f 1/28/6 16/29/6 17/30/6 18/31/6 4/32/6
f 16/33/2 19/34/2 20/35/2 17/36/2
f 19/37/5 12/38/5 15/39/5 20/40/5
f 17/41/1 20/42/1 21/43/1 18/44/1
f 13/45/7 3/46/7 21/47/7 14/48/7
f 3/49/8 4/50/8 18/51/8 21/52/8
f 10/17/3 2/12/3 5/11/3
f 10/53/9 5/54/9 22/55/9 23/56/9
f 5/57/6 7/58/6 24/59/6 25/60/6 26/61/6 22/62/6
f 24/63/10 7/64/10 8/65/10 27/66/10
f 28/67/4 29/68/4 27/69/4 8/70/4 10/71/4 23/72/4
f 29/73/11 25/74/11 24/75/11 27/76/11
f 21/43/1 20/42/1 15/77/1 14/78/1
usemtl Brick.007
f 35/79/9 36/80/9 34/81/9 33/82/9
f 9/83/1 36/84/1 35/85/1
f 6/86/1 36/84/1 9/83/1
f 36/84/1 6/86/1 37/87/1
f 4/88/1 37/87/1 6/86/1
f 37/87/1 4/88/1 3/89/1
f 13/21/4 11/20/4 9/90/4
f 1/28/6 4/32/6 6/91/6
f 38/92/1 3/89/1 13/93/1
f 37/87/1 3/89/1 38/92/1
f 37/94/8 38/95/8 31/96/8 30/97/8
f 38/98/7 39/99/7 32/100/7 31/101/7
f 38/92/1 13/93/1 39/102/1
f 39/102/1 13/93/1 35/85/1
f 9/83/1 35/85/1 13/93/1
f 39/103/6 35/104/6 33/105/6 32/106/6
f 36/107/4 37/108/4 30/109/4 34/110/4
f 40/111/4 29/68/4 28/67/4
f 41/112/12 25/113/12 29/114/12 40/115/12
f 41/112/6 26/61/6 25/60/6
f 40/116/13 28/117/13 23/118/13 22/62/13 26/61/13 41/112/13
