# Apple ModelIO OBJ File: mushroom
mtllib mushroom.mtl
g 
v 0.21769 -0.122376 -0.299624
v 0.352229 -0.122376 -0.114446
v 0.352229 -0.92446 -0.114446
v 0.21769 -0.92446 -0.299624
v 0 0.720663 0
v 0.174441 0.720663 -0.240097
v 0 0.720663 -0.296777
v 0 0.596636 -0.45
v 0.264503 0.596636 -0.364058
v 0.352229 -0.122376 0.114446
v 0.21769 -0.122376 0.299624
v 0.21769 -0.92446 0.299624
v 0.352229 -0.92446 0.114446
v 0.282251 0.720663 -0.0917088
v 0.427976 0.596636 -0.139058
v 0 -0.122376 -0.370356
v 0 -0.92446 -0.370356
v 0.282251 0.720663 0.0917091
v 0.427976 0.596636 0.139058
v 0 -0.122376 0.370356
v -0.21769 -0.122376 0.299624
v -0.21769 -0.92446 0.299624
v 0 -0.92446 0.370356
v 0.174441 0.720663 0.240097
v 0.264503 0.596636 0.364058
v -0.352229 -0.122376 0.114446
v -0.352229 -0.122376 -0.114446
v -0.352229 -0.92446 -0.114446
v -0.352229 -0.92446 0.114446
v 0 0.720663 0.296777
v 0 0.596636 0.45
v -0.174441 0.720663 0.240097
v -0.264503 0.596636 0.364058
v -0.21769 -0.122376 -0.299624
v -0.21769 -0.92446 -0.299624
v -0.282251 0.720663 0.0917091
v -0.427976 0.596636 0.139058
v -0.282251 0.720663 -0.0917091
v -0.427976 0.596636 -0.139058
v -0.174441 0.720663 -0.240097
v -0.264503 0.596636 -0.364058
v -0.393071 0.171647 -0.541016
v 0 0.171647 -0.668733
v -0.636003 0.171647 -0.20665
v -0.636003 0.171647 0.20665
v -0.393071 0.171647 0.541016
v 0 0.171647 0.668733
v 0.393071 0.171647 0.541016
v 0.636003 0.171647 0.20665
v 0.636003 0.171647 -0.20665
v 0.393071 0.171647 -0.541016
v 0 -0.106617 -0.693517
v 0.407639 -0.106617 -0.561067
v 0.659574 -0.106617 -0.214309
v 0.659574 -0.106617 0.214309
v 0.407639 -0.106617 0.561067
v 0 -0.106617 0.693517
v -0.407639 -0.106617 0.561067
v -0.659574 -0.106617 0.214309
v -0.659574 -0.106617 -0.214309
v -0.407639 -0.106617 -0.561067
v -0.183975 -1.03215 -0.25322
v -0.297678 -1.03215 -0.0967215
v 0.297678 -1.03215 -0.0967215
v 0.183975 -1.03215 -0.25322
v -0.297678 -1.03215 0.0967215
v -0.183975 -1.03215 0.25322
v 0 -1.03215 0.312997
v 0.183975 -1.03215 0.25322
v 0.297678 -1.03215 0.0967215
v 0 -1.03215 -0.312997
v 0 -1.03215 0
vn 0.809 0 -0.5878
vn 0 1 0
vn 0.2003 0.7615 -0.6164
vn 0.809 0 0.5878
vn 0.5244 0.7615 -0.381
vn 0.309 0 -0.9511
vn 0.6481 0.7615 0
vn -0.309 0 0.9511
vn 0.5244 0.7615 0.381
vn -1 0 0
vn 0.2003 0.7615 0.6164
vn 1 0 0
vn -0.2003 0.7615 0.6164
vn -0.309 0 -0.9511
vn -0.5244 0.7615 0.381
vn 0.309 0 0.9511
vn -0.6481 0.7615 0
vn -0.809 0 0.5878
vn -0.5244 0.7615 -0.381
vn -0.809 0 -0.5878
vn -0.2003 0.7615 -0.6164
vn -0.2776 0.4396 -0.8542
vn -0.7266 0.4396 -0.5279
vn -0.8982 0.4396 0
vn -0.7266 0.4396 0.5279
vn -0.2776 0.4396 0.8542
vn 0.2776 0.4396 0.8542
vn 0.7266 0.4396 0.5279
vn 0.8982 0.4396 0
vn 0.7266 0.4396 -0.5279
vn 0.2776 0.4396 -0.8542
vn 0.0158 -0.9987 -0.0487
vn 0.0414 -0.9987 -0.0301
vn 0.0512 -0.9987 0
vn 0.0414 -0.9987 0.0301
vn 0.0158 -0.9987 0.0487
vn -0.0158 -0.9987 0.0487
vn -0.0414 -0.9987 0.0301
vn -0.0512 -0.9987 0
vn -0.0414 -0.9987 -0.0301
vn -0.0158 -0.9987 -0.0487
vn 0.3079 0.0844 -0.9477
vn 0.8061 0.0844 -0.5857
vn 0.9964 0.0844 0
vn 0.8061 0.0844 0.5857
vn 0.3079 0.0844 0.9477
vn -0.3079 0.0844 0.9477
vn -0.8061 0.0844 0.5857
vn -0.9964 0.0844 0
vn -0.8061 0.0844 -0.5857
vn -0.3079 0.0844 -0.9477
vn -0.7217 -0.4519 -0.5243
vn 0.7217 -0.4519 -0.5243
vn -0.7217 -0.4519 0.5243
vn 0.2757 -0.4519 0.8484
vn 0.8921 -0.4519 0
vn -0.8921 -0.4519 0
vn 0.2757 -0.4519 -0.8484
vn -0.2757 -0.4519 -0.8484
vn -0.2757 -0.4519 0.8484
vn 0.7217 -0.4519 0.5243
vn 0 -1 0
vt 0.884301 0.069197
vt 0.884301 0.125168
vt 0.688169 0.125168
vt 0.688169 0.069197
vt 0.407825 0.180528
vt 0.456596 0.113401
vt 0.486738 0.154888
vt 0.263021 0.727751
vt 0.282675 0.698194
vt 0.312839 0.705251
vt 0.314277 0.740629
vt 0.884301 0.181138
vt 0.884301 0.237108
vt 0.688169 0.237108
vt 0.688169 0.181138
vt 0.407825 0.097554
vt 0.341223 0.693315
vt 0.363179 0.72094
vt 0.884301 0.013227
vt 0.688169 0.013227
vt 0.359055 0.113401
vt 0.356865 0.666805
vt 0.391042 0.67612
vt 0.884301 0.293079
vt 0.884301 0.349049
vt 0.688169 0.349049
vt 0.688169 0.293079
vt 0.328913 0.154888
vt 0.353775 0.635849
vt 0.387192 0.623315
vt 0.884301 0.40502
vt 0.884301 0.46099
vt 0.688169 0.46099
vt 0.688169 0.40502
vt 0.328913 0.206168
vt 0.333722 0.612109
vt 0.353432 0.582728
vt 0.359055 0.247655
vt 0.303728 0.605083
vt 0.302264 0.569785
vt 0.884301 0.516961
vt 0.884301 0.572931
vt 0.688169 0.572931
vt 0.688169 0.516961
vt 0.407825 0.263501
vt 0.275383 0.61721
vt 0.253319 0.589531
vt 0.456596 0.247655
vt 0.259551 0.643808
vt 0.225341 0.634375
vt 0.486738 0.206168
vt 0.262323 0.674733
vt 0.229044 0.687172
vt 0.120989 0.71913
vt 0.194367 0.817051
vt 0.119176 0.596767
vt 0.189633 0.496767
vt 0.305365 0.457376
vt 0.422075 0.493562
vt 0.495274 0.591359
vt 0.497164 0.713613
vt 0.426868 0.813613
vt 0.311218 0.853124
vt 0.701413 0.829226
vt 0.615372 0.857171
vt 0.615372 0.73728
vt 0.701405 0.765248
vt 0.685844 0.640289
vt 0.739005 0.713485
vt 0.799864 0.603245
vt 0.799853 0.693712
vt 0.913888 0.640291
vt 0.860705 0.713474
vt 0.98436 0.737283
vt 0.89832 0.765227
vt 0.98436 0.857172
vt 0.898328 0.829205
vt 0.91389 0.954163
vt 0.860726 0.880967
vt 0.799867 0.991211
vt 0.799879 0.900744
vt 0.685843 0.954164
vt 0.739027 0.880981
vt 0.128415 0.902457
vt 0.308078 0.960937
vt 0.48772 0.902632
vt 0.598705 0.749843
vt 0.598705 0.561067
vt 0.487999 0.408308
vt 0.308621 0.349607
vt 0.128854 0.407629
vt 0.017551 0.560406
vt 0.017401 0.749467
vt 0.135166 0.086795
vt 0.206178 0.101449
vt 0.189855 0.135735
vt 0.138465 0.123172
vt 0.228732 0.295891
vt 0.172819 0.329812
vt 0.162783 0.297673
vt 0.204832 0.272794
vt 0.025379 0.165597
vt 0.068478 0.110733
vt 0.090083 0.139204
vt 0.058372 0.177947
vt 0.048639 0.295256
vt 0.018312 0.23417
vt 0.052405 0.227055
vt 0.073411 0.271302
vt 0.106223 0.330393
vt 0.11443 0.297312
vt 0.263438 0.240999
vt 0.231801 0.226947
vt 0.263438 0.150077
vt 0.232183 0.176195
vt 0.139753 0.214231
usemtl material_1
f 1/1/1 2/2/1 3/3/1 4/4/1 
f 5/5/2 6/6/2 7/7/2 
f 8/8/3 7/9/3 6/10/3 9/11/3 
f 10/12/4 11/13/4 12/14/4 13/15/4 
f 5/5/2 14/16/2 6/6/2 
f 9/11/5 6/10/5 14/17/5 15/18/5 
f 16/19/6 1/1/6 4/4/6 17/20/6 
f 5/5/2 18/21/2 14/16/2 
f 15/18/7 14/17/7 18/22/7 19/23/7 
f 20/24/8 21/25/8 22/26/8 23/27/8 
f 5/5/2 24/28/2 18/21/2 
f 19/23/9 18/22/9 24/29/9 25/30/9 
f 26/31/10 27/32/10 28/33/10 29/34/10 
f 5/5/2 30/35/2 24/28/2 
f 25/30/11 24/29/11 30/36/11 31/37/11 
f 2/2/12 10/12/12 13/15/12 3/3/12 
f 5/5/2 32/38/2 30/35/2 
f 31/37/13 30/36/13 32/39/13 33/40/13 
f 34/41/14 16/42/14 17/43/14 35/44/14 
f 5/5/2 36/45/2 32/38/2 
f 33/40/15 32/39/15 36/46/15 37/47/15 
f 11/13/16 20/24/16 23/27/16 12/14/16 
f 5/5/2 38/48/2 36/45/2 
f 37/47/17 36/46/17 38/49/17 39/50/17 
f 21/25/18 26/31/18 29/34/18 22/26/18 
f 5/5/2 40/51/2 38/48/2 
f 39/50/19 38/49/19 40/52/19 41/53/19 
f 27/32/20 34/41/20 35/44/20 28/33/20 
f 5/5/2 7/7/2 40/51/2 
f 41/53/21 40/52/21 7/9/21 8/8/21 
f 42/54/22 41/53/22 8/8/22 43/55/22 
f 44/56/23 39/50/23 41/53/23 42/54/23 
f 45/57/24 37/47/24 39/50/24 44/56/24 
f 46/58/25 33/40/25 37/47/25 45/57/25 
f 47/59/26 31/37/26 33/40/26 46/58/26 
f 48/60/27 25/30/27 31/37/27 47/59/27 
f 49/61/28 19/23/28 25/30/28 48/60/28 
f 50/62/29 15/18/29 19/23/29 49/61/29 
f 51/63/30 9/11/30 15/18/30 50/62/30 
f 43/55/31 8/8/31 9/11/31 51/63/31 
f 16/64/32 52/65/32 53/66/32 1/67/32 
f 1/67/33 53/66/33 54/68/33 2/69/33 
f 2/69/34 54/68/34 55/70/34 10/71/34 
f 10/71/35 55/70/35 56/72/35 11/73/35 
f 11/73/36 56/72/36 57/74/36 20/75/36 
f 20/75/37 57/74/37 58/76/37 21/77/37 
f 21/77/38 58/76/38 59/78/38 26/79/38 
f 26/79/39 59/78/39 60/80/39 27/81/39 
f 27/81/40 60/80/40 61/82/40 34/83/40 
f 34/83/41 61/82/41 52/65/41 16/64/41 
f 52/84/42 43/55/42 51/63/42 53/85/42 
f 53/85/43 51/63/43 50/62/43 54/86/43 
f 54/86/44 50/62/44 49/61/44 55/87/44 
f 55/87/45 49/61/45 48/60/45 56/88/45 
f 56/88/46 48/60/46 47/59/46 57/89/46 
f 57/89/47 47/59/47 46/58/47 58/90/47 
f 58/90/48 46/58/48 45/57/48 59/91/48 
f 59/91/49 45/57/49 44/56/49 60/92/49 
f 60/92/50 44/56/50 42/54/50 61/93/50 
f 61/93/51 42/54/51 43/55/51 52/84/51 
f 28/94/52 35/95/52 62/96/52 63/97/52 
f 4/98/53 3/99/53 64/100/53 65/101/53 
f 22/102/54 29/103/54 66/104/54 67/105/54 
f 12/106/55 23/107/55 68/108/55 69/109/55 
f 3/99/56 13/110/56 70/111/56 64/100/56 
f 29/103/57 28/94/57 63/97/57 66/104/57 
f 17/112/58 4/98/58 65/101/58 71/113/58 
f 35/95/59 17/114/59 71/115/59 62/96/59 
f 23/107/60 22/102/60 67/105/60 68/108/60 
f 13/110/61 12/106/61 69/109/61 70/111/61 
f 72/116/62 71/113/62 65/101/62 
f 72/116/62 65/101/62 64/100/62 
f 72/116/62 64/100/62 70/111/62 
f 72/116/62 70/111/62 69/109/62 
f 72/116/62 69/109/62 68/108/62 
f 72/116/62 68/108/62 67/105/62 
f 72/116/62 67/105/62 66/104/62 
f 72/116/62 66/104/62 63/97/62 
f 72/116/62 63/97/62 62/96/62 
f 72/116/62 62/96/62 71/115/62 
s off
