# Blender v2.79 (sub 0) OBJ File: ''
# www.blender.org
mtllib oilcan.mtl
o OilCan1
v 0.000000 0.000578 0.000000
v 0.103336 0.000578 -0.103336
v 0.141160 0.000578 -0.037824
v 0.141160 0.000578 0.037824
v 0.103336 0.000578 0.103336
v 0.037824 0.000578 0.141160
v -0.037824 0.000578 0.141160
v -0.103336 0.000578 0.103336
v -0.141160 0.000578 0.037824
v -0.141160 0.000578 -0.037824
v -0.103336 0.000578 -0.103336
v -0.037824 0.000578 -0.141160
v 0.037824 0.000578 -0.141160
v 0.114320 0.044354 -0.114320
v 0.156160 0.044354 -0.041840
v 0.156160 0.044354 0.041840
v 0.114320 0.044354 0.114320
v 0.041840 0.044354 0.156160
v -0.041840 0.044354 0.156160
v -0.114320 0.044354 0.114320
v -0.156160 0.044354 0.041840
v -0.156160 0.044354 -0.041840
v -0.114320 0.044354 -0.114320
v -0.041840 0.044354 -0.156160
v 0.041840 0.044354 -0.156160
v 0.041840 0.329466 -0.156160
v 0.114320 0.329466 -0.114320
v -0.041840 0.329466 -0.156160
v -0.114320 0.329466 -0.114320
v -0.156160 0.329466 -0.041840
v -0.156160 0.329466 0.041840
v -0.114320 0.329466 0.114320
v -0.041840 0.329466 0.156160
v 0.041840 0.329466 0.156160
v 0.114320 0.329466 0.114320
v 0.156160 0.329466 0.041840
v 0.156160 0.329466 -0.041840
v 0.100520 0.370634 -0.100520
v 0.137312 0.370634 -0.036792
v 0.137312 0.370634 0.036792
v 0.100520 0.370634 0.100520
v 0.036792 0.370634 0.137312
v -0.036792 0.370634 0.137312
v -0.100520 0.370634 0.100520
v -0.137312 0.370634 0.036792
v -0.137312 0.370634 -0.036792
v -0.100520 0.370634 -0.100520
v -0.036792 0.370634 -0.137312
v 0.036792 0.370634 -0.137312
v 0.023152 0.447714 -0.086408
v 0.063256 0.447714 -0.063256
v -0.023152 0.447714 -0.086408
v -0.063256 0.447714 -0.063256
v -0.086408 0.447714 -0.023152
v -0.086408 0.447714 0.023152
v -0.063256 0.447714 0.063256
v -0.023152 0.447714 0.086408
v 0.023152 0.447714 0.086408
v 0.063256 0.447714 0.063256
v 0.086408 0.447714 0.023152
v 0.086408 0.447714 -0.023152
v 0.028728 0.512978 -0.028728
v 0.039240 0.512978 -0.010512
v 0.039240 0.512978 0.010512
v 0.028728 0.512978 0.028728
v 0.010512 0.512978 0.039240
v -0.010512 0.512978 0.039240
v -0.028728 0.512978 0.028728
v -0.039240 0.512978 0.010512
v -0.039240 0.512978 -0.010512
v -0.028728 0.512978 -0.028728
v -0.010512 0.512978 -0.039240
v 0.010512 0.512978 -0.039240
v 0.010512 0.561986 -0.039240
v 0.028728 0.561986 -0.028728
v -0.010512 0.561986 -0.039240
v -0.028728 0.561986 -0.028728
v -0.039240 0.561986 -0.010512
v -0.039240 0.561986 0.010512
v -0.028728 0.561986 0.028728
v -0.010512 0.561986 0.039240
v 0.010512 0.561986 0.039240
v 0.028728 0.561986 0.028728
v 0.039240 0.561986 0.010512
v 0.039240 0.561986 -0.010512
v 0.000000 0.561986 0.000000
vt 0.192519 0.538354
vt 0.318246 0.664081
vt 0.238538 0.710101
vt 0.146499 0.710101
vt 0.066791 0.664081
vt 0.020772 0.584373
vt 0.020772 0.492334
vt 0.066791 0.412626
vt 0.146499 0.366607
vt 0.238538 0.366607
vt 0.318246 0.412626
vt 0.364266 0.492334
vt 0.364266 0.584373
vt 0.752742 0.345456
vt 0.752742 0.298311
vt 0.831751 0.298311
vt 0.831751 0.345456
vt 0.909771 0.298311
vt 0.909771 0.345456
vt 0.985935 0.298311
vt 0.985935 0.345456
vt 0.013476 0.345456
vt 0.013476 0.298311
vt 0.097160 0.298311
vt 0.097160 0.345456
vt 0.180793 0.298311
vt 0.180793 0.345456
vt 0.264107 0.298311
vt 0.264107 0.345456
vt 0.346983 0.298311
vt 0.346983 0.345456
vt 0.429353 0.298311
vt 0.429353 0.345456
vt 0.510987 0.298311
vt 0.510987 0.345456
vt 0.592367 0.298311
vt 0.592367 0.345456
vt 0.672914 0.298311
vt 0.672914 0.345456
vt 0.672914 0.017124
vt 0.752742 0.017124
vt 0.592367 0.017124
vt 0.510987 0.017124
vt 0.429353 0.017124
vt 0.346983 0.017124
vt 0.264107 0.017124
vt 0.180793 0.017124
vt 0.097160 0.017124
vt 0.013476 0.017124
vt 0.909771 0.017124
vt 0.985935 0.017124
vt 0.831751 0.017124
vt 0.950642 0.540960
vt 0.907178 0.612080
vt 0.872518 0.583529
vt 0.909776 0.523297
vt 0.972796 0.460410
vt 0.928009 0.454375
vt 0.973014 0.377026
vt 0.927889 0.381940
vt 0.397164 0.460766
vt 0.396686 0.377027
vt 0.442019 0.381821
vt 0.442123 0.454566
vt 0.419670 0.541592
vt 0.460641 0.523730
vt 0.463534 0.612832
vt 0.498212 0.584076
vt 0.526324 0.669140
vt 0.551379 0.631158
vt 0.602694 0.704438
vt 0.615481 0.661567
vt 0.685763 0.716640
vt 0.685697 0.671280
vt 0.768766 0.704147
vt 0.755815 0.661413
vt 0.844784 0.668459
vt 0.819605 0.630665
vt 0.770060 0.556257
vt 0.803272 0.526315
vt 0.729751 0.575422
vt 0.685623 0.581913
vt 0.641493 0.575513
vt 0.600994 0.556498
vt 0.567605 0.526484
vt 0.544176 0.487863
vt 0.532874 0.443748
vt 0.534811 0.397368
vt 0.837628 0.443885
vt 0.835543 0.397704
vt 0.826501 0.487792
vt 0.740823 0.475247
vt 0.751705 0.457187
vt 0.756779 0.436697
vt 0.755432 0.415563
vt 0.615566 0.415085
vt 0.614220 0.436294
vt 0.619381 0.456899
vt 0.630154 0.475101
vt 0.645728 0.489343
vt 0.664733 0.498431
vt 0.685512 0.501612
vt 0.706284 0.498372
vt 0.725342 0.489479
vt 0.821743 0.912981
vt 0.768806 0.912980
vt 0.768805 0.789601
vt 0.821743 0.789601
vt 0.715871 0.912980
vt 0.715869 0.789604
vt 0.662938 0.912979
vt 0.662935 0.789606
vt 0.610004 0.912980
vt 0.610002 0.789608
vt 0.557072 0.912980
vt 0.557069 0.789610
vt 0.504139 0.912981
vt 0.504136 0.789611
vt 0.451207 0.912982
vt 0.451204 0.789613
vt 0.398274 0.912983
vt 0.398272 0.789613
vt 0.345342 0.912984
vt 0.345340 0.789614
vt 0.980556 0.912984
vt 0.927618 0.912983
vt 0.927619 0.789601
vt 0.980557 0.789601
vt 0.874680 0.912982
vt 0.874681 0.789601
vt 0.168149 0.854571
vt 0.265281 0.757438
vt 0.300834 0.819017
vt 0.300834 0.890123
vt 0.265281 0.951703
vt 0.203702 0.987256
vt 0.132596 0.987256
vt 0.071016 0.951703
vt 0.035464 0.890124
vt 0.035463 0.819018
vt 0.071016 0.757438
vt 0.132595 0.721885
vt 0.203701 0.721885
vn 0.0000 -1.0000 -0.0000
vn 0.6664 -0.3344 -0.6664
vn 0.6968 -0.1699 -0.6968
vn 0.9519 -0.1699 -0.2550
vn 0.9103 -0.3343 -0.2439
vn 0.9519 -0.1699 0.2550
vn 0.9103 -0.3343 0.2439
vn 0.6968 -0.1699 0.6968
vn 0.6664 -0.3344 0.6664
vn 0.2550 -0.1699 0.9519
vn 0.2439 -0.3343 0.9103
vn -0.2550 -0.1699 0.9519
vn -0.2439 -0.3343 0.9103
vn -0.6968 -0.1699 0.6968
vn -0.6664 -0.3344 0.6664
vn -0.9519 -0.1699 0.2550
vn -0.9103 -0.3343 0.2439
vn -0.9519 -0.1699 -0.2550
vn -0.9103 -0.3343 -0.2439
vn -0.6968 -0.1699 -0.6968
vn -0.6664 -0.3344 -0.6664
vn -0.2550 -0.1699 -0.9519
vn -0.2439 -0.3343 -0.9103
vn 0.2550 -0.1699 -0.9519
vn 0.2439 -0.3343 -0.9103
vn 0.2525 0.2202 -0.9422
vn 0.6898 0.2202 -0.6898
vn -0.2525 0.2202 -0.9422
vn -0.6898 0.2201 -0.6898
vn -0.9422 0.2202 -0.2525
vn -0.9422 0.2202 0.2525
vn -0.6898 0.2201 0.6898
vn -0.2525 0.2201 0.9422
vn 0.2525 0.2202 0.9422
vn 0.6898 0.2201 0.6898
vn 0.9422 0.2201 0.2525
vn 0.9422 0.2202 -0.2525
vn 0.6132 0.4980 -0.6132
vn 0.8376 0.4980 -0.2244
vn 0.8376 0.4980 0.2244
vn 0.6132 0.4980 0.6132
vn 0.2244 0.4980 0.8376
vn -0.2244 0.4980 0.8376
vn -0.6132 0.4980 0.6132
vn -0.8376 0.4980 0.2244
vn -0.8376 0.4980 -0.2244
vn -0.6132 0.4980 -0.6132
vn -0.2244 0.4980 -0.8376
vn 0.2244 0.4980 -0.8376
vn 0.2105 0.5819 -0.7856
vn 0.5751 0.5819 -0.5751
vn -0.2105 0.5819 -0.7855
vn -0.5751 0.5819 -0.5751
vn -0.7856 0.5819 -0.2105
vn -0.7856 0.5818 0.2105
vn -0.5751 0.5818 0.5751
vn -0.2105 0.5819 0.7856
vn 0.2105 0.5819 0.7856
vn 0.5751 0.5819 0.5751
vn 0.7856 0.5819 0.2105
vn 0.7856 0.5818 -0.2105
vn 0.7043 0.4182 -0.5737
vn 0.8489 0.4182 -0.3231
vn 0.8968 0.4182 -0.1447
vn 0.8968 0.4182 0.1447
vn 0.8489 0.4182 0.3231
vn 0.7043 0.4182 0.5737
vn 0.5737 0.4182 0.7043
vn 0.3231 0.4182 0.8489
vn 0.1447 0.4182 0.8968
vn -0.1447 0.4182 0.8968
vn -0.3231 0.4182 0.8489
vn -0.5737 0.4182 0.7043
vn -0.7043 0.4182 0.5737
vn -0.8489 0.4182 0.3231
vn -0.8968 0.4182 0.1447
vn -0.8968 0.4182 -0.1447
vn -0.8489 0.4182 -0.3231
vn -0.7043 0.4182 -0.5737
vn -0.5737 0.4182 -0.7043
vn -0.3231 0.4182 -0.8489
vn -0.1447 0.4182 -0.8968
vn 0.1447 0.4182 -0.8968
vn 0.3231 0.4182 -0.8489
vn 0.5737 0.4182 -0.7043
vn 0.6360 0.2103 -0.7425
vn 0.3250 0.2103 -0.9220
vn 0.2588 -0.0001 -0.9659
vn 0.7071 -0.0000 -0.7071
vn 0.1795 0.2103 -0.9610
vn -0.1795 0.2103 -0.9610
vn -0.2588 -0.0000 -0.9659
vn 0.2588 -0.0000 -0.9659
vn -0.3250 0.2103 -0.9220
vn -0.6360 0.2103 -0.7425
vn -0.7071 -0.0000 -0.7071
vn -0.7425 0.2103 -0.6360
vn -0.9220 0.2103 -0.3250
vn -0.9659 -0.0000 -0.2588
vn -0.9610 0.2103 -0.1795
vn -0.9610 0.2103 0.1795
vn -0.9659 -0.0000 0.2588
vn -0.9220 0.2103 0.3250
vn -0.7425 0.2103 0.6360
vn -0.7071 -0.0001 0.7071
vn -0.6360 0.2103 0.7425
vn -0.3250 0.2103 0.9220
vn -0.2588 -0.0000 0.9659
vn -0.7071 -0.0000 0.7071
vn -0.1795 0.2103 0.9610
vn 0.1795 0.2103 0.9610
vn 0.2588 -0.0000 0.9659
vn 0.3250 0.2103 0.9220
vn 0.6360 0.2103 0.7425
vn 0.7071 -0.0000 0.7071
vn 0.7425 0.2103 0.6360
vn 0.9220 0.2103 0.3250
vn 0.9659 -0.0000 0.2588
vn 0.9610 0.2103 0.1795
vn 0.9610 0.2103 -0.1795
vn 0.9659 -0.0000 -0.2588
vn 0.9220 0.2103 -0.3250
vn 0.7425 0.2103 -0.6360
vn 0.0000 1.0000 -0.0000
usemtl Material.001__AO.tga.001
s 1
f 1/1/1 2/2/1 3/3/1
f 1/1/1 3/3/1 4/4/1
f 1/1/1 4/4/1 5/5/1
f 1/1/1 5/5/1 6/6/1
f 1/1/1 6/6/1 7/7/1
f 1/1/1 7/7/1 8/8/1
f 1/1/1 8/8/1 9/9/1
f 1/1/1 9/9/1 10/10/1
f 1/1/1 10/10/1 11/11/1
f 1/1/1 11/11/1 12/12/1
f 1/1/1 12/12/1 13/13/1
f 13/13/1 2/2/1 1/1/1
f 2/14/2 14/15/3 15/16/4 3/17/5
f 3/17/5 15/16/4 16/18/6 4/19/7
f 4/19/7 16/18/6 17/20/8 5/21/9
f 5/22/9 17/23/8 18/24/10 6/25/11
f 6/25/11 18/24/10 19/26/12 7/27/13
f 7/27/13 19/26/12 20/28/14 8/29/15
f 8/29/15 20/28/14 21/30/16 9/31/17
f 9/31/17 21/30/16 22/32/18 10/33/19
f 10/33/19 22/32/18 23/34/20 11/35/21
f 11/35/21 23/34/20 24/36/22 12/37/23
f 12/37/23 24/36/22 25/38/24 13/39/25
f 14/15/3 2/14/2 13/39/25 25/38/24
f 14/15/3 25/38/24 26/40/26 27/41/27
f 25/38/24 24/36/22 28/42/28 26/40/26
f 24/36/22 23/34/20 29/43/29 28/42/28
f 23/34/20 22/32/18 30/44/30 29/43/29
f 22/32/18 21/30/16 31/45/31 30/44/30
f 21/30/16 20/28/14 32/46/32 31/45/31
f 20/28/14 19/26/12 33/47/33 32/46/32
f 19/26/12 18/24/10 34/48/34 33/47/33
f 18/24/10 17/23/8 35/49/35 34/48/34
f 17/20/8 16/18/6 36/50/36 35/51/35
f 16/18/6 15/16/4 37/52/37 36/50/36
f 15/16/4 14/15/3 27/41/27 37/52/37
f 37/53/37 27/54/27 38/55/38 39/56/39
f 36/57/36 37/53/37 39/56/39 40/58/40
f 35/59/35 36/57/36 40/58/40 41/60/41
f 34/61/34 35/62/35 41/63/41 42/64/42
f 33/65/33 34/61/34 42/64/42 43/66/43
f 32/67/32 33/65/33 43/66/43 44/68/44
f 31/69/31 32/67/32 44/68/44 45/70/45
f 30/71/30 31/69/31 45/70/45 46/72/46
f 29/73/29 30/71/30 46/72/46 47/74/47
f 28/75/28 29/73/29 47/74/47 48/76/48
f 26/77/26 28/75/28 48/76/48 49/78/49
f 27/54/27 26/77/26 49/78/49 38/55/38
f 38/55/38 49/78/49 50/79/50 51/80/51
f 49/78/49 48/76/48 52/81/52 50/79/50
f 48/76/48 47/74/47 53/82/53 52/81/52
f 47/74/47 46/72/46 54/83/54 53/82/53
f 46/72/46 45/70/45 55/84/55 54/83/54
f 45/70/45 44/68/44 56/85/56 55/84/55
f 44/68/44 43/66/43 57/86/57 56/85/56
f 43/66/43 42/64/42 58/87/58 57/86/57
f 42/64/42 41/63/41 59/88/59 58/87/58
f 41/60/41 40/58/40 60/89/60 59/90/59
f 40/58/40 39/56/39 61/91/61 60/89/60
f 39/56/39 38/55/38 51/80/51 61/91/61
f 61/91/61 51/80/51 62/92/62 63/93/63
f 60/89/60 61/91/61 63/93/64 64/94/65
f 59/90/59 60/89/60 64/94/66 65/95/67
f 58/87/58 59/88/59 65/96/68 66/97/69
f 57/86/57 58/87/58 66/97/70 67/98/71
f 56/85/56 57/86/57 67/98/72 68/99/73
f 55/84/55 56/85/56 68/99/74 69/100/75
f 54/83/54 55/84/55 69/100/76 70/101/77
f 53/82/53 54/83/54 70/101/78 71/102/79
f 52/81/52 53/82/53 71/102/80 72/103/81
f 50/79/50 52/81/52 72/103/82 73/104/83
f 51/80/51 50/79/50 73/104/84 62/92/85
f 62/105/86 73/106/87 74/107/88 75/108/89
f 73/106/90 72/109/91 76/110/92 74/107/93
f 72/109/94 71/111/95 77/112/96 76/110/92
f 71/111/97 70/113/98 78/114/99 77/112/96
f 70/113/100 69/115/101 79/116/102 78/114/99
f 69/115/103 68/117/104 80/118/105 79/116/102
f 68/117/106 67/119/107 81/120/108 80/118/109
f 67/119/110 66/121/111 82/122/112 81/120/108
f 66/121/113 65/123/114 83/124/115 82/122/112
f 65/125/116 64/126/117 84/127/118 83/128/115
f 64/126/119 63/129/120 85/130/121 84/127/118
f 63/129/122 62/105/123 75/108/89 85/130/121
f 86/131/124 75/132/124 74/133/124
f 86/131/124 74/133/124 76/134/124
f 86/131/124 76/134/124 77/135/124
f 86/131/124 77/135/124 78/136/124
f 86/131/124 78/136/124 79/137/124
f 86/131/124 79/137/124 80/138/124
f 86/131/124 80/138/124 81/139/124
f 86/131/124 81/139/124 82/140/124
f 86/131/124 82/140/124 83/141/124
f 86/131/124 83/141/124 84/142/124
f 86/131/124 84/142/124 85/143/124
f 86/131/124 85/143/124 75/132/124
