# Blender v2.79 (sub 0) OBJ File: ''
# www.blender.org
mtllib houseFloor3.mtl
o Mesh1_Group1_Model.012
v -0.067824 0.350440 0.000000
v -0.083434 0.388125 0.000000
v -0.083434 0.388125 -0.100000
v -0.067824 0.350440 -0.100000
v 0.062500 0.060000 0.000000
v 0.062500 0.120000 0.000000
v 0.062500 0.310000 0.000000
v -0.108265 0.420485 0.000000
v -0.140625 0.445316 0.000000
v 0.067824 0.350440 0.000000
v -0.500000 0.625000 0.000000
v 0.083434 0.388125 0.000000
v 0.108265 0.420485 0.000000
v 0.140625 0.445316 0.000000
v 0.178310 0.460926 0.000000
v 0.218750 0.466250 0.000000
v 0.259190 0.460926 0.000000
v 0.500000 0.625000 -0.000000
v 0.296875 0.445316 0.000000
v 0.329235 0.420485 0.000000
v 0.354066 0.388125 0.000000
v 0.369676 0.350440 0.000000
v 0.500000 0.000000 0.000000
v 0.375000 0.310000 0.000000
v 0.369676 0.350440 -0.100000
v 0.375000 0.310000 -0.100000
v 0.354066 0.388125 -0.100000
v 0.329235 0.420485 -0.100000
v 0.296875 0.445316 -0.100000
v 0.259190 0.460926 -0.100000
v 0.218750 0.466250 -0.100000
v 0.178310 0.460926 -0.100000
v 0.140625 0.445316 -0.100000
v 0.108265 0.420485 -0.100000
v 0.083434 0.388125 -0.100000
v 0.067824 0.350440 -0.100000
v 0.062500 0.310000 -0.100000
v 0.062500 0.120000 -0.100000
v 0.375000 0.120000 -0.100000
v 0.062500 0.120000 0.050000
v 0.375000 0.120000 0.050000
v 0.375000 0.120000 0.000000
v 0.375000 0.060000 0.000000
v -0.500000 0.000000 0.000000
v 0.375000 0.060000 0.050000
v 0.062500 0.060000 0.050000
v -0.062500 0.060000 0.000000
v -0.062500 0.310000 0.000000
v -0.062500 0.310000 -0.100000
v -0.062500 0.120000 -0.100000
v -0.108265 0.420485 -0.100000
v -0.140625 0.445316 -0.100000
v -0.178310 0.460926 -0.100000
v -0.218750 0.466250 -0.100000
v -0.259190 0.460926 -0.100000
v -0.296875 0.445316 -0.100000
v -0.329235 0.420485 -0.100000
v -0.354066 0.388125 -0.100000
v -0.369676 0.350440 -0.100000
v -0.375000 0.310000 -0.100000
v -0.375000 0.120000 -0.100000
v -0.062500 0.120000 0.000000
v -0.375000 0.120000 0.000000
v -0.375000 0.120000 0.050000
v -0.062500 0.120000 0.050000
v -0.375000 0.310000 0.000000
v -0.369676 0.350440 0.000000
v -0.354066 0.388125 0.000000
v -0.329235 0.420485 0.000000
v -0.296875 0.445316 0.000000
v -0.259190 0.460926 0.000000
v -0.218750 0.466250 0.000000
v -0.178310 0.460926 0.000000
v -0.375000 0.060000 0.000000
v -0.062500 0.060000 0.050000
v -0.375000 0.060000 0.050000
v -0.500000 0.625000 -1.000000
v -0.500000 0.000000 -1.000000
v 0.500000 0.625000 -1.000000
v 0.500000 0.000000 -1.000000
vt -4.921260 4.724410
vt -4.921260 12.204700
vt -5.130870 13.796900
vt -5.745410 15.280500
vt -6.723010 16.554501
vt -7.997050 17.532101
vt -9.480690 18.146700
vt -11.072800 18.356300
vt -12.665000 18.146700
vt -14.148600 17.532101
vt -15.422700 16.554501
vt -16.400299 15.280500
vt -17.014799 13.796900
vt -17.224400 12.204700
vt -17.224400 4.724410
vt -22.145700 4.724410
vt -22.145700 12.204700
vt -22.355301 13.796900
vt -22.969801 15.280500
vt -23.947399 16.554501
vt -25.221500 17.532101
vt -26.705099 18.146700
vt -28.297199 18.356300
vt -29.889400 18.146700
vt -31.372999 17.532101
vt -32.647099 16.554501
vt -33.624699 15.280500
vt -34.239201 13.796900
vt -34.448799 12.204700
vt -34.448799 4.724410
vt -0.000000 21.301600
vt -0.000000 22.907499
vt -3.937010 22.907499
vt -3.937010 21.301600
vt -17.224400 2.362200
vt -22.969801 15.280500
vt -22.355301 13.796900
vt -17.224400 4.724410
vt -17.224400 12.204700
vt -23.947399 16.554501
vt -25.221500 17.532101
vt -17.014799 13.796900
vt -39.370098 24.606300
vt -16.400299 15.280500
vt -15.422700 16.554501
vt -14.148600 17.532101
vt -12.665000 18.146700
vt -11.072800 18.356300
vt -9.480690 18.146700
vt 0.000000 24.606300
vt -7.997050 17.532101
vt -6.723010 16.554501
vt -5.745410 15.280500
vt -5.130870 13.796900
vt 0.000000 0.000000
vt -4.921260 12.204700
vt -0.000000 12.742700
vt -0.000000 14.348500
vt -3.937010 14.348500
vt -3.937010 12.742700
vt 0.000000 14.710100
vt 0.000000 16.316000
vt -3.937010 16.316000
vt -3.937010 14.710100
vt 0.000000 15.620400
vt 0.000000 17.226299
vt -3.937010 17.226299
vt -3.937010 15.620400
vt 0.000000 15.411500
vt 0.000000 17.017401
vt -3.937010 17.017401
vt -3.937010 15.411500
vt 0.000000 14.097600
vt 0.000000 15.703500
vt -3.937010 15.703500
vt -3.937010 14.097600
vt 0.000000 11.768200
vt 0.000000 13.374100
vt -3.937010 13.374100
vt -3.937010 11.768200
vt 0.000000 -8.582130
vt 0.000000 -10.188000
vt 3.937010 -10.188000
vt 3.937010 -8.582130
vt 0.000000 -4.756480
vt 0.000000 -6.362360
vt 3.937010 -6.362360
vt 3.937010 -4.756480
vt 0.000000 -0.551963
vt 0.000000 -2.157850
vt 3.937010 -2.157850
vt 3.937010 -0.551963
vt 0.000000 3.744890
vt 0.000000 2.139000
vt 3.937010 2.139000
vt 3.937010 3.744890
vt 0.000000 7.841250
vt 0.000000 6.235360
vt 3.937010 6.235360
vt 3.937010 7.841250
vt 0.000000 11.458000
vt 0.000000 9.852070
vt 3.937010 9.852070
vt 3.937010 11.458000
vt 0.000000 12.204700
vt 0.000000 4.724410
vt 3.937010 4.724410
vt 3.937010 12.204700
vt 3.937010 4.921260
vt 3.937010 17.224400
vt 0.000000 17.224400
vt -1.968500 17.224400
vt -1.968500 4.921260
vt 0.000000 4.921260
vt -3.937010 12.204700
vt -3.937010 4.724410
vt 0.000000 4.724410
vt 0.000000 12.204700
vt -4.921260 2.362200
vt -4.921260 4.724410
vt -39.370098 0.000000
vt 0.000000 17.224400
vt 0.000000 4.921260
vt 1.968500 4.921260
vt 1.968500 17.224400
vt 0.000000 2.362200
vt -1.968500 4.724410
vt -1.968500 2.362200
vt -17.224400 4.724410
vt -17.224400 2.362200
vt -4.921260 2.362200
vt -4.921260 4.724410
vt 0.000000 2.362200
vt 1.968500 2.362200
vt 1.968500 4.724410
vt -22.145700 2.362200
vt -22.145700 12.204700
vt -0.000000 14.990900
vt -0.000000 16.596800
vt -3.937010 16.596800
vt -3.937010 14.990900
vt -3.937010 12.204700
vt -3.937010 4.724410
vt 0.000000 4.724410
vt 0.000000 12.204700
vt 3.937010 22.145700
vt 3.937010 34.448799
vt 0.000000 34.448799
vt -1.968500 34.448799
vt -1.968500 22.145700
vt 0.000000 22.145700
vt 3.937010 12.204700
vt 0.000000 12.204700
vt 0.000000 4.724410
vt 3.937010 4.724410
vt 0.000000 9.209720
vt 0.000000 7.603840
vt 3.937010 7.603840
vt 3.937010 9.209720
vt -34.239201 13.796900
vt -34.448799 12.204700
vt -33.624699 15.280500
vt -32.647099 16.554501
vt -31.372999 17.532101
vt -29.889400 18.146700
vt -28.297199 18.356300
vt -26.705099 18.146700
vt 0.000000 30.010799
vt 0.000000 31.616699
vt -3.937010 31.616699
vt -3.937010 30.010799
vt 0.000000 28.845301
vt 0.000000 30.451099
vt -3.937010 30.451099
vt -3.937010 28.845301
vt 0.000000 -25.659201
vt 0.000000 -27.265100
vt 3.937010 -27.265100
vt 3.937010 -25.659201
vt 0.000000 -20.669800
vt 0.000000 -22.275600
vt 3.937010 -22.275600
vt 3.937010 -20.669800
vt -0.000000 -14.217000
vt -0.000000 -15.822900
vt 3.937010 -15.822900
vt 3.937010 -14.217000
vt 0.000000 -6.740670
vt 0.000000 -8.346550
vt 3.937010 -8.346550
vt 3.937010 -6.740670
vt -0.000000 1.249750
vt -0.000000 -0.356133
vt 3.937010 -0.356133
vt 3.937010 1.249750
vt -0.000000 29.076500
vt -0.000000 30.682400
vt -3.937010 30.682400
vt -3.937010 29.076500
vt -0.000000 26.106001
vt -0.000000 27.711901
vt -3.937010 27.711901
vt -3.937010 26.106001
vt -34.448799 4.724410
vt -34.448799 2.362200
vt 0.000000 34.448799
vt 0.000000 22.145700
vt 1.968500 22.145700
vt 1.968500 34.448799
vt 0.000000 2.362200
vt -1.968500 4.724410
vt -1.968500 2.362200
vt -22.145700 4.724410
vt -34.448799 4.724410
vt -34.448799 2.362200
vt -22.145700 2.362200
vt -22.145700 4.724410
vt 0.000000 2.362200
vt 1.968500 2.362200
vt 1.968500 4.724410
vt 0.000000 0.000000
vt 0.000000 24.606300
vt -39.370098 24.606300
vt -39.370098 0.000000
vt 0.000000 39.370098
vt 0.000000 0.000000
vt 39.370098 0.000000
vt 39.370098 39.370098
vt 39.370098 0.000000
vt 39.370098 24.606300
vt 39.370098 0.000000
vt 39.370098 24.606300
vt 0.000000 24.606300
vt 0.000000 0.000000
vt 0.000000 39.370098
vt -39.370098 39.370098
vt -39.370098 0.000000
vn 0.0000 0.0000 1.0000
vn -0.9659 -0.2588 -0.0000
vn -0.8660 -0.5000 -0.0000
vn -0.9914 -0.1305 0.0000
vn -0.7071 -0.7071 0.0000
vn -0.5000 -0.8660 -0.0000
vn -0.2588 -0.9659 -0.0000
vn 0.0000 -1.0000 0.0000
vn 0.2588 -0.9659 0.0000
vn 0.5000 -0.8660 0.0000
vn 0.7071 -0.7071 0.0000
vn 0.8660 -0.5000 0.0000
vn 0.9659 -0.2588 -0.0000
vn 0.9914 -0.1305 -0.0000
vn 1.0000 -0.0000 -0.0000
vn 0.0000 1.0000 0.0000
vn -1.0000 0.0000 0.0000
vn 0.0000 0.0000 -1.0000
usemtl Glass.009
s 1
f 39/1/1 26/2/1 25/3/1 27/4/1 28/5/1 29/6/1 30/7/1 31/8/1 32/9/1 33/10/1 34/11/1 35/12/1 36/13/1 37/14/1 38/15/1
f 50/16/1 49/17/1 4/18/1 3/19/1 51/20/1 52/21/1 53/22/1 54/23/1 55/24/1 56/25/1 57/26/1 58/27/1 59/28/1 60/29/1 61/30/1
usemtl Brick.011
f 1/31/2 2/32/3 3/33/3 4/34/2
f 5/35/1 2/36/1 1/37/1
f 6/38/1 2/36/1 5/35/1
f 7/39/1 2/36/1 6/38/1
f 7/39/1 8/40/1 2/36/1
f 7/39/1 9/41/1 8/40/1
f 10/42/1 9/41/1 7/39/1
f 10/42/1 11/43/1 9/41/1
f 12/44/1 11/43/1 10/42/1
f 13/45/1 11/43/1 12/44/1
f 14/46/1 11/43/1 13/45/1
f 15/47/1 11/43/1 14/46/1
f 16/48/1 11/43/1 15/47/1
f 17/49/1 11/43/1 16/48/1
f 17/49/1 18/50/1 11/43/1
f 19/51/1 18/50/1 17/49/1
f 20/52/1 18/50/1 19/51/1
f 21/53/1 18/50/1 20/52/1
f 22/54/1 18/50/1 21/53/1
f 18/50/1 22/54/1 23/55/1
f 23/55/1 22/54/1 24/56/1
f 24/57/4 22/58/2 25/59/2 26/60/4
f 22/61/2 21/62/3 27/63/3 25/64/2
f 21/65/3 20/66/5 28/67/5 27/68/3
f 20/69/5 19/70/6 29/71/6 28/72/5
f 19/73/6 17/74/7 30/75/7 29/76/6
f 17/77/7 16/78/8 31/79/8 30/80/7
f 16/81/8 15/82/9 32/83/9 31/84/8
f 15/85/9 14/86/10 33/87/10 32/88/9
f 14/89/10 13/90/11 34/91/11 33/92/10
f 13/93/11 12/94/12 35/95/12 34/96/11
f 12/97/12 10/98/13 36/99/13 35/100/12
f 10/101/13 7/102/14 37/103/14 36/104/13
f 7/105/15 6/106/15 38/107/15 37/108/15
f 39/109/16 38/110/16 6/111/16 40/112/16 41/113/16 42/114/16
f 26/115/17 39/116/17 42/117/17 24/118/17
f 43/119/1 24/56/1 42/120/15
f 43/119/1 23/55/1 24/56/1
f 23/55/1 43/119/1 44/121/1
f 44/121/1 43/119/1 5/35/1
f 5/122/8 43/123/8 45/124/8 46/125/8
f 43/126/15 42/117/15 41/127/15 45/128/15
f 40/129/1 46/130/1 45/131/1 41/132/1
f 6/106/17 5/133/17 46/134/17 40/135/17
f 44/121/1 5/35/1 47/136/1
f 47/136/1 5/35/1 48/137/1
f 5/35/1 1/37/1 48/137/1
f 48/138/4 1/139/2 4/140/2 49/141/4
f 49/142/17 50/143/17 62/144/17 48/145/17
f 50/146/16 61/147/16 63/148/16 64/149/16 65/150/16 62/151/16
f 60/152/15 66/153/15 63/154/15 61/155/15
f 67/156/13 66/157/14 60/158/14 59/159/13
f 67/160/1 11/43/1 66/161/1
f 68/162/1 11/43/1 67/160/1
f 69/163/1 11/43/1 68/162/1
f 70/164/1 11/43/1 69/163/1
f 71/165/1 11/43/1 70/164/1
f 72/166/1 11/43/1 71/165/1
f 73/167/1 11/43/1 72/166/1
f 9/41/1 11/43/1 73/167/1
f 9/168/6 73/169/7 53/170/7 52/171/6
f 73/172/7 72/173/8 54/174/8 53/175/7
f 72/176/8 71/177/9 55/178/9 54/179/8
f 71/180/9 70/181/10 56/182/10 55/183/9
f 70/184/10 69/185/11 57/186/11 56/187/10
f 69/188/11 68/189/12 58/190/12 57/191/11
f 68/192/12 67/193/13 59/194/13 58/195/12
f 8/196/5 9/197/6 52/198/6 51/199/5
f 2/200/3 8/201/5 51/202/5 3/203/3
f 66/161/1 11/43/1 63/204/1
f 63/204/1 11/43/1 74/205/1
f 44/121/1 74/205/1 11/43/1
f 44/121/1 47/136/1 74/205/1
f 74/206/8 47/207/8 75/208/8 76/209/8
f 47/210/15 62/144/15 65/211/15 75/212/15
f 47/136/1 48/137/1 62/213/17
f 64/214/1 76/215/1 75/216/1 65/217/1
f 63/154/17 74/218/17 76/219/17 64/220/17
f 44/221/17 11/222/17 77/223/17 78/224/17
f 11/225/16 18/226/16 79/227/16 77/228/16
f 80/229/15 79/230/15 18/50/15 23/55/15
f 78/231/18 77/232/18 79/233/18 80/234/18
f 23/55/8 44/235/8 78/236/8 80/237/8
