# Blender v2.79 (sub 0) OBJ File: ''
# www.blender.org
mtllib houseFloor2.mtl
o Mesh1_Group1_Model.011
v 0.500000 0.625000 -0.000000
v 0.375000 0.500000 0.000000
v 0.500000 0.000000 0.000000
v -0.500000 0.625000 0.000000
v 0.500000 0.625000 -1.000000
v -0.500000 0.625000 -1.000000
v 0.500000 0.000000 -1.000000
v -0.500000 0.000000 -1.000000
v -0.500000 0.000000 0.000000
v -0.375000 0.060000 0.000000
v -0.062500 0.060000 0.000000
v 0.062500 0.060000 0.000000
v 0.375000 0.060000 0.000000
v 0.375000 0.120000 0.000000
v 0.375000 0.500000 -0.100000
v 0.375000 0.120000 -0.100000
v 0.062500 0.500000 -0.100000
v 0.062500 0.120000 -0.100000
v 0.062500 0.500000 0.000000
v -0.062500 0.500000 0.000000
v -0.375000 0.500000 0.000000
v -0.375000 0.120000 0.000000
v -0.375000 0.060000 0.050000
v -0.375000 0.120000 0.050000
v -0.062500 0.060000 0.050000
v -0.062500 0.120000 0.000000
v -0.062500 0.120000 0.050000
v 0.062500 0.120000 0.000000
v 0.062500 0.120000 0.050000
v 0.375000 0.120000 0.050000
v 0.062500 0.060000 0.050000
v 0.375000 0.060000 0.050000
v -0.062500 0.500000 -0.100000
v -0.062500 0.120000 -0.100000
v -0.375000 0.500000 -0.100000
v -0.375000 0.120000 -0.100000
vt -4.921260 19.684999
vt -17.224400 19.684999
vt -17.224400 4.724410
vt -4.921260 4.724410
vt -34.448799 19.684999
vt -34.448799 4.724410
vt -22.145700 4.724410
vt -22.145700 19.684999
vt 0.000000 24.606300
vt -4.921260 19.684999
vt 0.000000 0.000000
vt -39.370098 24.606300
vt 0.000000 39.370098
vt 0.000000 0.000000
vt 39.370098 0.000000
vt 39.370098 39.370098
vt 39.370098 0.000000
vt 39.370098 24.606300
vt 39.370098 0.000000
vt 39.370098 24.606300
vt 0.000000 24.606300
vt 0.000000 0.000000
vt 0.000000 0.000000
vt 0.000000 24.606300
vt -39.370098 24.606300
vt -39.370098 0.000000
vt -39.370098 0.000000
vt -34.448799 2.362200
vt -22.145700 2.362200
vt -17.224400 2.362200
vt -4.921260 2.362200
vt -4.921260 4.724410
vt -3.937010 19.684999
vt -3.937010 4.724410
vt 0.000000 4.724410
vt 0.000000 19.684999
vt 0.000000 4.921260
vt 0.000000 17.224400
vt -3.937010 17.224400
vt -3.937010 4.921260
vt -17.224400 19.684999
vt -22.145700 19.684999
vt -34.448799 19.684999
vt -34.448799 4.724410
vt 0.000000 4.724410
vt 0.000000 2.362200
vt 1.968500 2.362200
vt 1.968500 4.724410
vt 0.000000 34.448799
vt 0.000000 22.145700
vt 1.968500 22.145700
vt 1.968500 34.448799
vt 0.000000 2.362200
vt 0.000000 4.724410
vt -1.968500 4.724410
vt -1.968500 2.362200
vt -22.145700 4.724410
vt -17.224400 4.724410
vt 0.000000 19.684999
vt 0.000000 4.724410
vt 3.937010 4.724410
vt 3.937010 19.684999
vt 3.937010 4.921260
vt 3.937010 17.224400
vt 0.000000 17.224400
vt -1.968500 17.224400
vt -1.968500 4.921260
vt 0.000000 4.921260
vt 0.000000 2.362200
vt 1.968500 2.362200
vt 1.968500 4.724410
vt 0.000000 17.224400
vt 0.000000 4.921260
vt 1.968500 4.921260
vt 1.968500 17.224400
vt 0.000000 2.362200
vt -1.968500 4.724410
vt -1.968500 2.362200
vt -17.224400 4.724410
vt -17.224400 2.362200
vt -4.921260 2.362200
vt -4.921260 4.724410
vt -3.937010 19.684999
vt -3.937010 4.724410
vt 0.000000 19.684999
vt 0.000000 19.684999
vt 3.937010 4.724410
vt 3.937010 19.684999
vt 3.937010 22.145700
vt 3.937010 34.448799
vt 0.000000 34.448799
vt -1.968500 34.448799
vt -1.968500 22.145700
vt 0.000000 22.145700
vt -34.448799 4.724410
vt -34.448799 2.362200
vt -22.145700 2.362200
vt -22.145700 4.724410
vt 0.000000 22.145700
vt 0.000000 34.448799
vt -3.937010 34.448799
vt -3.937010 22.145700
vt 0.000000 39.370098
vt -39.370098 39.370098
vt -39.370098 0.000000
vn 0.0000 -0.0000 1.0000
vn 0.0000 1.0000 0.0000
vn 1.0000 -0.0000 -0.0000
vn 0.0000 0.0000 -1.0000
vn -1.0000 0.0000 0.0000
vn -0.0000 -1.0000 0.0000
usemtl Glass.008
s 1
f 15/1/1 17/2/1 18/3/1 16/4/1
f 35/5/1 36/6/1 34/7/1 33/8/1
usemtl Brick.010
f 1/9/1 2/10/1 3/11/1
f 2/10/1 1/9/1 4/12/1
f 4/13/2 1/14/2 5/15/2 6/16/2
f 7/17/3 5/18/3 1/9/3 3/11/3
f 8/19/4 6/20/4 5/21/4 7/22/4
f 9/23/5 4/24/5 6/25/5 8/26/5
f 9/27/1 10/28/1 4/12/1
f 9/27/1 11/29/1 10/28/1
f 9/27/1 12/30/1 11/29/1
f 9/27/1 13/31/1 12/30/1
f 3/11/1 13/31/1 9/27/1
f 13/31/1 3/11/1 2/10/1
f 13/31/1 2/10/1 14/32/3
f 15/33/5 16/34/5 14/35/5 2/36/5
f 2/37/6 19/38/6 17/39/6 15/40/6
f 2/10/1 4/12/1 19/41/1
f 19/41/1 4/12/1 20/42/1
f 20/42/1 4/12/1 21/43/1
f 21/43/1 4/12/1 22/44/1
f 22/44/1 4/12/1 10/28/1
f 22/45/5 10/46/5 23/47/5 24/48/5
f 10/49/6 11/50/6 25/51/6 23/52/6
f 11/53/3 26/54/3 27/55/3 25/56/3
f 11/29/1 20/42/1 26/57/5
f 11/29/1 12/30/1 20/42/1
f 28/58/1 20/42/1 12/30/1
f 19/41/1 20/42/1 28/58/1
f 19/59/3 28/60/3 18/61/3 17/62/3
f 16/63/2 18/64/2 28/65/2 29/66/2 30/67/2 14/68/2
f 28/60/5 12/69/5 31/70/5 29/71/5
f 12/72/6 13/73/6 32/74/6 31/75/6
f 13/76/3 14/35/3 30/77/3 32/78/3
f 29/79/1 31/80/1 32/81/1 30/82/1
f 33/83/5 34/84/5 26/54/5 20/85/5
f 21/86/3 22/45/3 36/87/3 35/88/3
f 34/89/2 36/90/2 22/91/2 24/92/2 27/93/2 26/94/2
f 24/95/1 23/96/1 25/97/1 27/98/1
f 20/99/6 21/100/6 35/101/6 33/102/6
f 3/11/6 9/103/6 8/104/6 7/105/6
