# Blender v2.79 (sub 0) OBJ File: ''
# www.blender.org
mtllib houseRoof1.mtl
o Mesh1_Group1_Model.005
v 0.545643 0.052710 0.000000
v 0.000000 0.518750 0.000000
v -0.545640 0.052710 0.000000
v -0.500000 0.000000 0.000000
v 0.000000 0.427056 0.000000
v 0.500000 0.000000 0.000000
v 0.545643 0.052710 -1.000000
v 0.000000 0.518750 -1.000000
v 0.500000 0.000000 -1.000000
v 0.000000 0.427056 -1.000000
v -0.500000 0.000000 -1.000000
v -0.545640 0.052710 -1.000000
vt 0.000000 0.000000
vt 39.370098 0.000000
vt 19.684999 16.813200
vt 0.000000 0.000000
vt 0.000001 39.370098
vt -39.370098 39.370098
vt -39.370098 0.000001
vt -39.370098 0.000000
vt -19.684999 16.813200
vt -0.000000 25.887899
vt 39.370098 -0.000000
vt 39.370098 25.887899
vt -39.370098 -4.048820
vt -39.370098 -29.936800
vt 0.000000 -29.936800
vt 0.000000 -4.048820
vt 1.796960 2.075180
vt -19.684999 20.423201
vt 39.370098 -0.018644
vt 39.370098 28.232500
vt 0.000000 28.232500
vt 0.000000 -0.018644
vt 19.684999 20.423201
vt -1.796960 2.075180
vt -39.370098 25.772100
vt 0.000000 25.772100
vt 0.000000 28.517200
vt -39.370098 28.517200
vt 0.000000 -29.955400
vt -0.000000 -1.704270
vt -39.370098 -1.704270
vt -39.370098 -29.955400
vt 39.370098 2.745080
vt 0.000000 2.745080
vt -41.167000 2.075180
vt 41.167000 2.075180
vn 0.0000 0.0000 -1.0000
vn 0.0000 -1.0000 -0.0000
vn 0.0000 -0.0000 1.0000
vn 0.6495 0.7604 0.0000
vn -0.6495 0.7604 0.0000
vn -0.7560 -0.6546 -0.0000
vn 0.7560 -0.6546 -0.0000
usemtl Brick.004
s 1
f 9/1/1 11/2/1 10/3/1
f 6/4/2 4/5/2 11/6/2 9/7/2
f 4/8/3 6/4/3 5/9/3
f 5/10/4 6/4/4 9/11/4 10/12/4
f 10/13/5 11/14/5 4/15/5 5/16/5
usemtl Roof
f 1/17/3 2/18/3 5/9/3 6/4/3
f 7/19/4 8/20/4 2/21/4 1/22/4
f 9/1/1 10/3/1 8/23/1 7/24/1
f 11/25/6 4/26/6 3/27/6 12/28/6
f 3/29/5 2/30/5 8/31/5 12/32/5
f 6/4/7 9/11/7 7/33/7 1/34/7
f 5/9/3 2/18/3 3/35/3 4/8/3
f 8/23/1 10/3/1 11/2/1 12/36/1
