# Blender v2.79 (sub 0) OBJ File: ''
# www.blender.org
mtllib houseGround2.mtl
o Mesh1_Group1_Model.003
v 0.406250 0.500000 0.000000
v 0.218750 0.500000 0.000000
v 0.218750 0.500000 -0.100000
v 0.406250 0.500000 -0.100000
v -0.500000 0.625000 0.000000
v 0.500000 0.625000 -0.000000
v 0.500000 0.000000 0.000000
v 0.406250 0.078125 0.000000
v 0.125000 0.000000 0.000000
v 0.218750 0.078125 0.000000
v 0.406250 0.078125 -0.100000
v 0.218750 0.078125 -0.100000
v 0.125000 0.500000 0.000000
v -0.125000 0.500000 0.000000
v -0.218750 0.500000 0.000000
v -0.406250 0.500000 0.000000
v -0.406250 0.078125 0.000000
v -0.500000 0.000000 0.000000
v -0.218750 0.078125 0.000000
v -0.125000 0.000000 0.000000
v -0.125000 0.000000 -0.100000
v -0.125000 0.500000 -0.100000
v 0.500000 0.000000 -1.000000
v 0.125000 0.000000 -0.100000
v -0.500000 0.000000 -1.000000
v 0.500000 0.625000 -1.000000
v -0.500000 0.625000 -1.000000
v 0.125000 0.500000 -0.100000
v -0.218750 0.500000 -0.100000
v -0.218750 0.078125 -0.100000
v -0.406250 0.500000 -0.100000
v -0.406250 0.078125 -0.100000
vt -11.072800 19.684999
vt -11.072800 3.075790
vt -3.690940 3.075790
vt -3.690940 19.684999
vt -14.763800 19.684999
vt -24.606300 19.684999
vt -24.606300 0.000000
vt -14.763800 0.000000
vt -28.297199 19.684999
vt -35.679100 19.684999
vt -35.679100 3.075790
vt -28.297199 3.075790
vt 0.000000 3.690940
vt 0.000000 11.072800
vt -3.937010 11.072800
vt -3.937010 3.690940
vt -3.690940 19.684999
vt -39.370098 24.606300
vt -11.072800 19.684999
vt 0.000000 24.606300
vt 0.000000 0.000000
vt -3.690940 3.075790
vt -14.763800 0.000000
vt -11.072800 3.075790
vt 0.000000 11.072800
vt 0.000000 3.690940
vt 3.937010 3.690940
vt 3.937010 11.072800
vt 0.000000 3.075790
vt 0.000000 19.684999
vt -3.937010 19.684999
vt -3.937010 3.075790
vt 0.000000 19.684999
vt 0.000000 3.075790
vt 3.937010 3.075790
vt 3.937010 19.684999
vt -14.763800 19.684999
vt -24.606300 19.684999
vt -28.297199 19.684999
vt -35.679100 19.684999
vt -35.679100 3.075790
vt -39.370098 0.000000
vt -28.297199 3.075790
vt -24.606300 0.000000
vt 0.000000 19.684999
vt 0.000000 0.000000
vt 3.937010 0.000000
vt 3.937010 19.684999
vt -39.370098 0.000000
vt 0.000000 14.763800
vt -3.937010 14.763800
vt -3.937010 24.606300
vt 0.000000 24.606300
vt 0.000000 39.370098
vt -39.370098 39.370098
vt 39.370098 0.000000
vt 39.370098 24.606300
vt 39.370098 0.000000
vt 39.370098 24.606300
vt 0.000000 24.606300
vt 0.000000 0.000000
vt 0.000000 0.000000
vt 0.000000 24.606300
vt -39.370098 24.606300
vt -39.370098 0.000000
vt 39.370098 39.370098
vt -0.000000 39.370098
vt -0.000000 0.000000
vt 39.370098 0.000000
vt 0.000000 0.000000
vt 0.000000 19.684999
vt -3.937010 19.684999
vt -3.937010 0.000000
vt 0.000000 14.763800
vt 0.000000 24.606300
vt -3.937010 24.606300
vt -3.937010 14.763800
vt 0.000000 3.075790
vt 0.000000 19.684999
vt -3.937010 19.684999
vt -3.937010 3.075790
vt 0.000000 28.297199
vt 0.000000 35.679100
vt -3.937010 35.679100
vt -3.937010 28.297199
vt 0.000000 19.684999
vt 0.000000 3.075790
vt 3.937010 3.075790
vt 3.937010 19.684999
vt 0.000000 35.679100
vt 0.000000 28.297199
vt 3.937010 28.297199
vt 3.937010 35.679100
vn 0.0000 -0.0000 1.0000
vn 0.0000 -1.0000 0.0000
vn 0.0000 1.0000 0.0000
vn -1.0000 0.0000 0.0000
vn 1.0000 -0.0000 0.0000
vn 0.0000 0.0000 -1.0000
usemtl Glass.001
s 1
f 3/1/1 12/2/1 11/3/1 4/4/1
f 28/5/1 22/6/1 21/7/1 24/8/1
f 29/9/1 31/10/1 32/11/1 30/12/1
usemtl Brick.002
f 1/13/2 2/14/2 3/15/2 4/16/2
f 1/17/1 5/18/1 2/19/1
f 1/17/1 6/20/1 5/18/1
f 6/20/1 1/17/1 7/21/1
f 8/22/1 7/21/1 1/17/1
f 7/21/1 8/22/1 9/23/1
f 9/23/1 8/22/1 10/24/1
f 10/25/3 8/26/3 11/27/3 12/28/3
f 8/29/4 1/30/4 4/31/4 11/32/4
f 2/33/5 10/34/5 12/35/5 3/36/5
f 2/19/1 13/37/1 10/24/1
f 2/19/1 5/18/1 13/37/1
f 13/37/1 5/18/1 14/38/1
f 14/38/1 5/18/1 15/39/1
f 15/39/1 5/18/1 16/40/1
f 16/40/1 5/18/1 17/41/1
f 18/42/1 17/41/1 5/18/1
f 18/42/1 19/43/1 17/41/1
f 20/44/1 19/43/1 18/42/1
f 19/43/1 20/44/1 15/39/1
f 14/38/1 15/39/1 20/44/1
f 14/45/5 20/46/5 21/47/5 22/48/5
f 23/49/2 7/21/2 9/50/2 24/51/2 21/52/2 20/53/2 18/54/2 25/55/2
f 23/56/5 26/57/5 6/20/5 7/21/5
f 25/58/6 27/59/6 26/60/6 23/61/6
f 18/62/4 5/63/4 27/64/4 25/65/4
f 27/66/3 5/67/3 6/68/3 26/69/3
f 9/70/4 13/71/4 28/72/4 24/73/4
f 9/23/1 10/24/1 13/37/1
f 13/74/2 14/75/2 22/76/2 28/77/2
f 19/78/4 15/79/4 29/80/4 30/81/4
f 15/82/2 16/83/2 31/84/2 29/85/2
f 16/86/5 17/87/5 32/88/5 31/89/5
f 17/90/3 19/91/3 30/92/3 32/93/3
