# Blender v2.79 (sub 0) OBJ File: ''
# www.blender.org
mtllib houseFloor4.mtl
o Mesh1_Group1_Model.013
v -0.375000 0.500000 -0.100000
v -0.375000 0.120000 -0.100000
v -0.062500 0.120000 -0.100000
v -0.062500 0.500000 -0.100000
v -0.375000 0.500000 0.000000
v -0.375000 0.444444 0.000000
v -0.375000 0.375000 0.000000
v -0.375000 0.120000 0.000000
v -0.500000 0.625000 0.000000
v -0.062500 0.500000 0.000000
v 0.062500 0.500000 0.000000
v 0.375000 0.500000 0.000000
v 0.500000 0.625000 -0.000000
v 0.500000 0.000000 0.000000
v 0.375000 0.060000 0.000000
v -0.500000 0.000000 0.000000
v 0.062500 0.060000 0.000000
v 0.375000 0.060000 0.050000
v 0.062500 0.060000 0.050000
v 0.375000 0.120000 0.000000
v 0.375000 0.120000 0.050000
v 0.375000 0.375000 0.000000
v 0.375000 0.444444 0.000000
v 0.375000 0.500000 -0.100000
v 0.375000 0.120000 -0.100000
v 0.062500 0.500000 -0.100000
v 0.062500 0.120000 -0.100000
v 0.062500 0.444444 0.000000
v 0.062500 0.375000 0.000000
v -0.062500 0.444444 0.000000
v -0.375000 0.375000 0.128250
v -0.375000 0.391316 0.127153
v -0.375000 0.407352 0.123880
v -0.375000 0.422835 0.118488
v -0.375000 0.437500 0.111068
v -0.375000 0.451095 0.101748
v -0.375000 0.463388 0.090686
v -0.375000 0.474169 0.078074
v -0.375000 0.483253 0.064125
v -0.375000 0.490485 0.049079
v -0.375000 0.495741 0.033194
v -0.375000 0.498931 0.016740
v -0.375000 0.060000 0.000000
v -0.062500 0.060000 0.000000
v 0.062500 0.120000 0.000000
v 0.062500 0.120000 0.050000
v 0.062500 0.375000 0.128250
v 0.062500 0.391316 0.127153
v 0.062500 0.407352 0.123880
v 0.062500 0.422835 0.118488
v 0.062500 0.437500 0.111068
v 0.062500 0.451095 0.101748
v 0.062500 0.463388 0.090686
v 0.062500 0.474169 0.078074
v 0.062500 0.483253 0.064125
v 0.062500 0.490485 0.049079
v 0.062500 0.495741 0.033194
v 0.062500 0.498931 0.016740
v 0.375000 0.498931 0.016740
v 0.375000 0.495741 0.033194
v 0.375000 0.490485 0.049079
v 0.375000 0.483253 0.064125
v 0.375000 0.474169 0.078074
v 0.375000 0.463388 0.090686
v 0.375000 0.451095 0.101748
v 0.375000 0.437500 0.111068
v 0.375000 0.422835 0.118488
v 0.375000 0.407352 0.123880
v 0.375000 0.391316 0.127153
v 0.375000 0.375000 0.128250
v -0.062500 0.375000 0.000000
v -0.062500 0.120000 0.000000
v -0.375000 0.120000 0.050000
v -0.062500 0.120000 0.050000
v -0.375000 0.060000 0.050000
v -0.062500 0.060000 0.050000
v -0.062500 0.498931 0.016740
v -0.062500 0.495741 0.033194
v -0.062500 0.490485 0.049079
v -0.062500 0.483253 0.064125
v -0.062500 0.474169 0.078074
v -0.062500 0.463388 0.090686
v -0.062500 0.451095 0.101748
v -0.062500 0.437500 0.111068
v -0.062500 0.422835 0.118488
v -0.062500 0.407352 0.123880
v -0.062500 0.391316 0.127153
v -0.062500 0.375000 0.128250
v -0.500000 0.625000 -1.000000
v -0.500000 0.000000 -1.000000
v 0.500000 0.625000 -1.000000
v 0.500000 0.000000 -1.000000
vt 17.224400 17.497801
vt 17.224400 19.684999
vt 4.921260 19.684999
vt 4.921260 17.497801
vt 34.448799 17.497801
vt 34.448799 19.684999
vt 22.145700 19.684999
vt 22.145700 17.497801
vt 0.000000 17.497801
vt 0.000000 14.763800
vt 5.049210 14.763800
vt 5.006020 15.406100
vt 4.877160 16.037500
vt 4.664860 16.647100
vt 4.372750 17.224400
vt 4.005810 17.759701
vt 3.570330 18.243601
vt 3.073770 18.668100
vt 2.524610 19.025700
vt 1.932250 19.310400
vt 1.306830 19.517401
vt 0.659054 19.642900
vt 0.000000 19.684999
vt 0.000000 17.497801
vt 0.000000 14.763800
vt 5.049210 14.763800
vt 5.006020 15.406100
vt 4.877160 16.037500
vt 4.664860 16.647100
vt 4.372750 17.224400
vt 4.005810 17.759701
vt 3.570330 18.243601
vt 3.073770 18.668100
vt 2.524610 19.025700
vt 1.932250 19.310400
vt 1.306830 19.517401
vt 0.659054 19.642900
vt 0.000000 19.684999
vt 17.224400 14.763800
vt 4.921260 14.763800
vt 0.000000 14.763800
vt 0.000000 17.497801
vt 0.000000 19.684999
vt -0.659054 19.642900
vt -1.306830 19.517401
vt -1.932250 19.310400
vt -2.524610 19.025700
vt -3.073770 18.668100
vt -3.570330 18.243601
vt -4.005810 17.759701
vt -4.372750 17.224400
vt -4.664860 16.647100
vt -4.877160 16.037500
vt -5.006020 15.406100
vt -5.049210 14.763800
vt -17.224400 1.254970
vt -17.224400 0.594574
vt -4.921260 0.594574
vt -4.921260 1.254970
vt -17.224400 3.091590
vt -17.224400 2.431750
vt -4.921260 2.431750
vt -4.921260 3.091590
vt -17.224400 4.889840
vt -17.224400 4.231090
vt -4.921260 4.231090
vt -4.921260 4.889840
vt -17.224400 6.623870
vt -17.224400 5.966640
vt -4.921260 5.966640
vt -4.921260 6.623870
vt -17.224400 8.267220
vt -17.224400 7.611870
vt -4.921260 7.611870
vt -4.921260 8.267220
vt -17.224400 9.792930
vt -17.224400 9.139680
vt -4.921260 9.139680
vt -4.921260 9.792930
vt -17.224400 11.173800
vt -17.224400 10.522700
vt -4.921260 10.522700
vt -4.921260 11.173800
vt -17.224400 12.383000
vt -17.224400 11.734000
vt -4.921260 11.734000
vt -4.921260 12.383000
vt -17.224400 13.395000
vt -17.224400 12.747900
vt -4.921260 12.747900
vt -4.921260 13.395000
vt -17.224400 14.186600
vt -17.224400 13.541100
vt -4.921260 13.541100
vt -4.921260 14.186600
vt -17.224400 14.738300
vt -17.224400 14.094000
vt -4.921260 14.094000
vt -4.921260 14.738300
vt -17.224400 15.035500
vt -17.224400 14.391700
vt -4.921260 14.391700
vt -4.921260 15.035500
vt 5.049210 17.224400
vt 0.000000 17.224400
vt 0.000000 4.921260
vt 5.049210 4.921260
vt 34.448799 14.763800
vt 22.145700 14.763800
vt 0.000000 14.763800
vt 0.000000 17.497801
vt 0.000000 19.684999
vt -0.659054 19.642900
vt -1.306830 19.517401
vt -1.932250 19.310400
vt -2.524610 19.025700
vt -3.073770 18.668100
vt -3.570330 18.243601
vt -4.005810 17.759701
vt -4.372750 17.224400
vt -4.664860 16.647100
vt -4.877160 16.037500
vt -5.006020 15.406100
vt -5.049210 14.763800
vt -34.448799 1.254970
vt -34.448799 0.594574
vt -22.145700 0.594574
vt -22.145700 1.254970
vt -34.448799 3.091590
vt -34.448799 2.431750
vt -22.145700 2.431750
vt -22.145700 3.091590
vt -34.448799 4.889840
vt -34.448799 4.231090
vt -22.145700 4.231090
vt -22.145700 4.889840
vt -34.448799 6.623870
vt -34.448799 5.966640
vt -22.145700 5.966640
vt -22.145700 6.623870
vt -34.448799 8.267220
vt -34.448799 7.611870
vt -22.145700 7.611870
vt -22.145700 8.267220
vt -34.448799 9.792930
vt -34.448799 9.139680
vt -22.145700 9.139680
vt -22.145700 9.792930
vt -34.448799 11.173800
vt -34.448799 10.522700
vt -22.145700 10.522700
vt -22.145700 11.173800
vt -34.448799 12.383000
vt -34.448799 11.734000
vt -22.145700 11.734000
vt -22.145700 12.383000
vt -34.448799 13.395000
vt -34.448799 12.747900
vt -22.145700 12.747900
vt -22.145700 13.395000
vt -34.448799 14.186600
vt -34.448799 13.541100
vt -22.145700 13.541100
vt -22.145700 14.186600
vt -34.448799 14.738300
vt -34.448799 14.094000
vt -22.145700 14.094000
vt -22.145700 14.738300
vt -34.448799 15.035500
vt -34.448799 14.391700
vt -22.145700 14.391700
vt -22.145700 15.035500
vt 5.049210 34.448799
vt 0.000000 34.448799
vt 0.000000 22.145700
vt 5.049210 22.145700
vt -34.448799 19.684999
vt -34.448799 4.724410
vt -22.145700 4.724410
vt -22.145700 19.684999
vt -4.921260 19.684999
vt -17.224400 19.684999
vt -17.224400 4.724410
vt -4.921260 4.724410
vt 0.000000 4.724410
vt 3.937010 4.724410
vt 3.937010 19.684999
vt -34.448799 19.684999
vt -39.370098 24.606300
vt -34.448799 17.497801
vt -22.145700 19.684999
vt -17.224400 19.684999
vt -4.921260 19.684999
vt 0.000000 24.606300
vt 0.000000 0.000000
vt -4.921260 2.362200
vt -39.370098 0.000000
vt -17.224400 2.362200
vt 0.000000 17.224400
vt 0.000000 4.921260
vt 1.968500 4.921260
vt 1.968500 17.224400
vt 0.000000 2.362200
vt 0.000000 4.724410
vt -1.968500 4.724410
vt -1.968500 2.362200
vt -4.921260 14.763800
vt -4.921260 4.724410
vt -4.921260 17.497801
vt -3.937010 19.684999
vt -3.937010 4.724410
vt 0.000000 4.921260
vt 0.000000 17.224400
vt -3.937010 17.224400
vt -3.937010 4.921260
vt -17.224400 17.497801
vt -17.224400 14.763800
vt -22.145700 17.497801
vt -34.448799 14.763800
vt -34.448799 4.724410
vt -34.448799 2.362200
vt -22.145700 2.362200
vt -17.224400 4.724410
vt 0.000000 4.724410
vt 0.000000 2.362200
vt 1.968500 2.362200
vt 1.968500 4.724410
vt -17.224400 4.724410
vt -17.224400 2.362200
vt -4.921260 2.362200
vt -4.921260 4.724410
vt 3.937010 4.921260
vt 3.937010 17.224400
vt 0.000000 17.224400
vt -1.968500 17.224400
vt -1.968500 4.921260
vt 0.000000 4.921260
vt 3.937010 4.724410
vt 3.937010 19.684999
vt -22.145700 14.763800
vt -3.937010 19.684999
vt -3.937010 4.724410
vt -0.000000 4.724410
vt 3.937010 22.145700
vt 3.937010 34.448799
vt 0.000000 34.448799
vt -1.968500 34.448799
vt -1.968500 22.145700
vt 0.000000 22.145700
vt 0.000000 2.362200
vt 1.968500 2.362200
vt 1.968500 4.724410
vt 0.000000 34.448799
vt 0.000000 22.145700
vt 1.968500 22.145700
vt 1.968500 34.448799
vt 0.000000 2.362200
vt -1.968500 4.724410
vt -1.968500 2.362200
vt -22.145700 4.724410
vt -34.448799 4.724410
vt -34.448799 2.362200
vt -22.145700 2.362200
vt -22.145700 4.724410
vt 0.000000 22.145700
vt 0.000000 34.448799
vt -3.937010 34.448799
vt -3.937010 22.145700
vt 0.000000 0.000000
vt 0.000000 24.606300
vt -39.370098 24.606300
vt -39.370098 0.000000
vt 0.000000 39.370098
vt 0.000000 0.000000
vt 39.370098 0.000000
vt 39.370098 39.370098
vt 39.370098 0.000000
vt 39.370098 24.606300
vt 39.370098 0.000000
vt 39.370098 24.606300
vt 0.000000 24.606300
vt 0.000000 0.000000
vt 0.000000 39.370098
vt -39.370098 39.370098
vt -39.370098 0.000000
vn -0.0000 0.0000 -1.0000
vn -1.0000 0.0000 0.0000
vn 1.0000 -0.0000 -0.0000
vn 0.0000 0.9980 0.0637
vn 0.0000 0.9919 0.1273
vn 0.0000 0.9675 0.2527
vn 0.0000 0.9273 0.3744
vn 0.0000 0.8714 0.4905
vn 0.0000 0.8007 0.5990
vn 0.0000 0.7161 0.6980
vn 0.0000 0.6185 0.7858
vn 0.0000 0.5096 0.8604
vn 0.0000 0.3910 0.9204
vn 0.0000 0.2650 0.9642
vn 0.0000 0.1338 0.9910
vn 0.0000 0.0671 0.9977
vn -0.0000 -1.0000 0.0000
vn 0.0000 -0.0000 1.0000
vn 0.0000 1.0000 0.0000
usemtl Green.001
s 1
f 28/1/1 11/2/1 12/3/1 23/4/1
f 6/5/1 5/6/1 10/7/1 30/8/1
f 6/9/2 7/10/2 31/11/2 32/12/2 33/13/2 34/14/2 35/15/2 36/16/2 37/17/2 38/18/2 39/19/2 40/20/2 41/21/2 42/22/2 5/23/2
f 28/24/2 29/25/2 47/26/2 48/27/2 49/28/2 50/29/2 51/30/2 52/31/2 53/32/2 54/33/2 55/34/2 56/35/2 57/36/2 58/37/2 11/38/2
f 29/39/1 28/1/1 23/4/1 22/40/1
f 22/41/3 23/42/3 12/43/3 59/44/3 60/45/3 61/46/3 62/47/3 63/48/3 64/49/3 65/50/3 66/51/3 67/52/3 68/53/3 69/54/3 70/55/3
f 11/56/4 58/57/5 59/58/5 12/59/4
f 58/60/5 57/61/6 60/62/6 59/63/5
f 57/64/6 56/65/7 61/66/7 60/67/6
f 56/68/7 55/69/8 62/70/8 61/71/7
f 55/72/8 54/73/9 63/74/9 62/75/8
f 54/76/9 53/77/10 64/78/10 63/79/9
f 53/80/10 52/81/11 65/82/11 64/83/10
f 52/84/11 51/85/12 66/86/12 65/87/11
f 51/88/12 50/89/13 67/90/13 66/91/12
f 50/92/13 49/93/14 68/94/14 67/95/13
f 49/96/14 48/97/15 69/98/15 68/99/14
f 48/100/15 47/101/16 70/102/16 69/103/15
f 47/104/17 29/105/17 22/106/17 70/107/17
f 7/108/1 6/5/1 30/8/1 71/109/1
f 71/110/3 30/111/3 10/112/3 77/113/3 78/114/3 79/115/3 80/116/3 81/117/3 82/118/3 83/119/3 84/120/3 85/121/3 86/122/3 87/123/3 88/124/3
f 5/125/4 42/126/5 77/127/5 10/128/4
f 42/129/5 41/130/6 78/131/6 77/132/5
f 41/133/6 40/134/7 79/135/7 78/136/6
f 40/137/7 39/138/8 80/139/8 79/140/7
f 39/141/8 38/142/9 81/143/9 80/144/8
f 38/145/9 37/146/10 82/147/10 81/148/9
f 37/149/10 36/150/11 83/151/11 82/152/10
f 36/153/11 35/154/12 84/155/12 83/156/11
f 35/157/12 34/158/13 85/159/13 84/160/12
f 34/161/13 33/162/14 86/163/14 85/164/13
f 33/165/14 32/166/15 87/167/15 86/168/14
f 32/169/15 31/170/16 88/171/16 87/172/15
f 31/173/17 7/174/17 71/175/17 88/176/17
usemtl Glass.010
f 1/177/18 2/178/18 3/179/18 4/180/18
f 24/181/18 26/182/18 27/183/18 25/184/18
usemtl Brick.012
f 5/23/3 6/9/3 7/10/3 8/185/3 2/186/3 1/187/3
f 5/188/18 9/189/18 6/190/18
f 10/191/18 9/189/18 5/188/18
f 11/192/18 9/189/18 10/191/18
f 12/193/18 9/189/18 11/192/18
f 12/193/18 13/194/18 9/189/18
f 13/194/18 12/193/18 14/195/18
f 15/196/18 14/195/18 12/193/18
f 14/195/18 15/196/18 16/197/18
f 16/197/18 15/196/18 17/198/18
f 17/199/17 15/200/17 18/201/17 19/202/17
f 15/203/3 20/204/3 21/205/3 18/206/3
f 15/196/18 22/207/3 20/208/3
f 15/196/18 23/209/2 22/207/3
f 15/196/18 12/193/18 23/209/2
f 24/210/2 25/211/2 20/204/2 22/41/2 23/42/2 12/43/2
f 12/212/17 11/213/17 26/214/17 24/215/17
f 11/192/18 10/191/18 28/216/18
f 28/216/18 10/191/18 29/217/18
f 29/217/18 10/191/18 30/218/18
f 6/190/18 9/189/18 7/219/18
f 7/219/18 9/189/18 8/220/18
f 8/220/18 9/189/18 43/221/18
f 16/197/18 43/221/18 9/189/18
f 16/197/18 44/222/18 43/221/18
f 16/197/18 17/198/18 44/222/18
f 44/222/18 17/198/18 29/217/18
f 29/217/18 17/198/18 45/223/1
f 45/224/2 17/225/2 19/226/2 46/227/2
f 46/228/18 19/229/18 18/230/18 21/231/18
f 25/232/19 27/233/19 45/234/19 46/235/19 21/236/19 20/237/19
f 11/38/3 28/24/3 29/25/3 45/224/3 27/238/3 26/239/3
f 44/222/18 29/217/18 71/240/18
f 71/240/18 29/217/18 30/218/18
f 4/241/2 3/242/2 72/243/2 71/110/2 30/111/2 10/112/2
f 3/244/19 2/245/19 8/246/19 73/247/19 74/248/19 72/249/19
f 8/185/2 43/250/2 75/251/2 73/252/2
f 43/253/17 44/254/17 76/255/17 75/256/17
f 44/257/3 72/243/3 74/258/3 76/259/3
f 44/222/18 71/240/18 72/260/2
f 73/261/18 75/262/18 76/263/18 74/264/18
f 10/265/17 5/266/17 1/267/17 4/268/17
f 16/269/2 9/270/2 89/271/2 90/272/2
f 9/273/19 13/274/19 91/275/19 89/276/19
f 92/277/3 91/278/3 13/194/3 14/195/3
f 90/279/1 89/280/1 91/281/1 92/282/1
f 14/195/17 16/283/17 90/284/17 92/285/17
