# Blender v2.79 (sub 0) OBJ File: 'Grass.blend'
# www.blender.org
mtllib grass02.mtl
o Plane.002_Plane.002
v 0.005703 0.021808 0.000013
v 0.003885 0.048166 0.000013
v -0.001562 0.049078 0.000013
v -0.000526 0.024109 0.000013
v 0.003772 0.000939 0.000013
v 0.005229 0.015049 0.000013
v -0.002168 0.015049 0.000013
v -0.002204 0.000939 0.000013
v 0.004908 0.068383 0.000013
v 0.000661 0.068584 0.000013
v 0.000423 0.061521 0.000013
v 0.004191 0.060993 0.000013
v 0.005169 0.074264 0.000013
v 0.000921 0.074465 0.000013
v 0.005532 0.079986 0.000013
v 0.001038 0.080198 0.000013
v 0.005587 0.092525 0.000013
v 0.002403 0.092675 0.000013
v 0.004647 0.096191 0.000013
v 0.003752 0.096233 0.000013
vt 0.471038 0.422367
vt 0.605055 0.562847
vt 0.583929 0.584325
vt 0.445640 0.448188
vt 0.069463 0.028677
vt 0.157857 0.105520
vt 0.132211 0.131594
vt 0.048743 0.049742
vt 0.803896 0.787246
vt 0.789126 0.802263
vt 0.722595 0.731980
vt 0.739711 0.714579
vt 0.836804 0.823208
vt 0.822033 0.838224
vt 0.869227 0.857835
vt 0.853599 0.873724
vt 0.937518 0.936131
vt 0.926446 0.947388
vt 0.953914 0.962115
vt 0.950801 0.965280
vn -0.0000 -0.0000 1.0000
usemtl Grass.001
s off
f 1/1/1 2/2/1 3/3/1 4/4/1
f 5/5/1 6/6/1 7/7/1 8/8/1
f 9/9/1 10/10/1 11/11/1 12/12/1
f 6/6/1 1/1/1 4/4/1 7/7/1
f 12/12/1 11/11/1 3/3/1 2/2/1
f 13/13/1 14/14/1 10/10/1 9/9/1
f 15/15/1 16/16/1 14/14/1 13/13/1
f 17/17/1 18/18/1 16/16/1 15/15/1
f 19/19/1 20/20/1 18/18/1 17/17/1
