# Blender v2.93.0 OBJ File: ''
# www.blender.org
mtllib sun_sphere.mtl
o Sphere
v 0.000000 -0.161803 -0.117557
v 0.036327 0.190211 -0.050000
v 0.069098 0.161803 -0.095106
v 0.095106 0.117557 -0.130902
v 0.111803 0.061803 -0.153884
v 0.117557 -0.000000 -0.161803
v 0.111803 -0.061803 -0.153884
v 0.095106 -0.117557 -0.130902
v 0.069098 -0.161803 -0.095106
v 0.036327 -0.190211 -0.050000
v 0.058779 0.190211 -0.019098
v 0.111803 0.161803 -0.036327
v 0.153884 0.117557 -0.050000
v 0.180902 0.061803 -0.058779
v 0.190211 -0.000000 -0.061803
v 0.180902 -0.061803 -0.058779
v 0.153884 -0.117557 -0.050000
v 0.111803 -0.161803 -0.036327
v 0.058779 -0.190211 -0.019098
v 0.058779 0.190211 0.019098
v 0.111803 0.161803 0.036327
v 0.153884 0.117557 0.050000
v 0.180902 0.061803 0.058779
v 0.190211 -0.000000 0.061803
v 0.180902 -0.061803 0.058779
v 0.153884 -0.117557 0.050000
v 0.111803 -0.161803 0.036327
v 0.058779 -0.190211 0.019098
v 0.036327 0.190211 0.050000
v 0.069098 0.161803 0.095106
v 0.095106 0.117557 0.130902
v 0.111803 0.061803 0.153884
v 0.117557 -0.000000 0.161803
v 0.111803 -0.061803 0.153884
v 0.095106 -0.117557 0.130902
v 0.069098 -0.161803 0.095106
v 0.036327 -0.190211 0.050000
v -0.000000 0.200000 0.000000
v -0.000000 0.190211 0.061803
v -0.000000 0.161803 0.117557
v 0.000000 0.117557 0.161803
v 0.000000 0.061803 0.190211
v 0.000000 -0.000000 0.200000
v 0.000000 -0.061803 0.190211
v 0.000000 -0.117557 0.161803
v 0.000000 -0.161803 0.117557
v 0.000000 -0.190211 0.061803
v -0.036327 0.190211 0.050000
v -0.069098 0.161803 0.095106
v -0.095106 0.117557 0.130902
v -0.111803 0.061803 0.153884
v -0.117557 -0.000000 0.161803
v -0.111803 -0.061803 0.153884
v -0.095106 -0.117557 0.130902
v -0.069098 -0.161803 0.095106
v -0.036327 -0.190211 0.050000
v -0.058779 0.190211 0.019098
v -0.111803 0.161803 0.036327
v -0.153884 0.117557 0.050000
v -0.180902 0.061803 0.058779
v -0.190211 -0.000000 0.061803
v -0.180902 -0.061803 0.058779
v -0.153884 -0.117557 0.050000
v -0.111803 -0.161803 0.036327
v -0.058779 -0.190211 0.019098
v -0.058779 0.190211 -0.019098
v -0.111803 0.161803 -0.036327
v -0.153884 0.117557 -0.050000
v -0.180902 0.061803 -0.058778
v -0.190211 -0.000000 -0.061803
v -0.180902 -0.061803 -0.058778
v -0.153884 -0.117557 -0.050000
v -0.111803 -0.161803 -0.036327
v -0.058779 -0.190211 -0.019098
v -0.036327 0.190211 -0.050000
v -0.069098 0.161803 -0.095106
v -0.095106 0.117557 -0.130902
v -0.111803 0.061803 -0.153884
v -0.117557 -0.000000 -0.161803
v -0.111803 -0.061803 -0.153884
v -0.095106 -0.117557 -0.130902
v -0.069098 -0.161803 -0.095106
v -0.036327 -0.190211 -0.050000
v 0.000000 0.190211 -0.061803
v -0.000000 0.161803 -0.117557
v -0.000000 0.117557 -0.161803
v -0.000000 0.061803 -0.190211
v -0.000000 -0.000000 -0.200000
v -0.000000 -0.061803 -0.190211
v -0.000000 -0.117557 -0.161803
v -0.000000 -0.190211 -0.061803
v 0.000000 -0.200000 0.000000
vt 0.700000 0.500000
vt 0.700000 0.600000
vt 0.600000 0.600000
vt 0.600000 0.500000
vt 0.700000 0.800000
vt 0.700000 0.900000
vt 0.600000 0.900000
vt 0.600000 0.800000
vt 0.700000 0.100000
vt 0.700000 0.200000
vt 0.600000 0.200000
vt 0.600000 0.100000
vt 0.700000 0.400000
vt 0.600000 0.400000
vt 0.700000 0.700000
vt 0.600000 0.700000
vt 0.650000 0.000000
vt 0.700000 0.300000
vt 0.600000 0.300000
vt 0.650000 1.000000
vt 0.500000 0.600000
vt 0.500000 0.500000
vt 0.500000 0.900000
vt 0.500000 0.800000
vt 0.500000 0.200000
vt 0.500000 0.100000
vt 0.500000 0.400000
vt 0.500000 0.700000
vt 0.550000 0.000000
vt 0.500000 0.300000
vt 0.550000 1.000000
vt 0.450000 1.000000
vt 0.400000 0.900000
vt 0.400000 0.300000
vt 0.400000 0.200000
vt 0.400000 0.600000
vt 0.400000 0.500000
vt 0.400000 0.800000
vt 0.400000 0.100000
vt 0.400000 0.400000
vt 0.400000 0.700000
vt 0.450000 0.000000
vt 0.300000 0.700000
vt 0.300000 0.600000
vt 0.350000 1.000000
vt 0.300000 0.900000
vt 0.300000 0.300000
vt 0.300000 0.200000
vt 0.300000 0.500000
vt 0.300000 0.800000
vt 0.300000 0.100000
vt 0.300000 0.400000
vt 0.350000 0.000000
vt 0.250000 0.000000
vt 0.200000 0.100000
vt 0.200000 0.400000
vt 0.200000 0.300000
vt 0.200000 0.700000
vt 0.200000 0.600000
vt 0.250000 1.000000
vt 0.200000 0.900000
vt 0.200000 0.200000
vt 0.200000 0.500000
vt 0.200000 0.800000
vt 0.100000 0.500000
vt 0.100000 0.400000
vt 0.100000 0.800000
vt 0.100000 0.700000
vt 0.150000 0.000000
vt 0.100000 0.100000
vt 0.100000 0.300000
vt 0.100000 0.600000
vt 0.150000 1.000000
vt 0.100000 0.900000
vt 0.100000 0.200000
vt 0.000000 0.900000
vt 0.000000 0.800000
vt 0.000000 0.200000
vt 0.000000 0.100000
vt 0.000000 0.500000
vt 0.000000 0.400000
vt 0.000000 0.700000
vt 0.050000 0.000000
vt 0.000000 0.300000
vt 0.000000 0.600000
vt 0.050000 1.000000
vt 1.000000 0.500000
vt 1.000000 0.600000
vt 0.900000 0.600000
vt 0.900000 0.500000
vt 1.000000 0.800000
vt 1.000000 0.900000
vt 0.900000 0.900000
vt 0.900000 0.800000
vt 1.000000 0.100000
vt 1.000000 0.200000
vt 0.900000 0.200000
vt 0.900000 0.100000
vt 1.000000 0.400000
vt 0.900000 0.400000
vt 1.000000 0.700000
vt 0.900000 0.700000
vt 0.950000 0.000000
vt 1.000000 0.300000
vt 0.900000 0.300000
vt 0.950000 1.000000
vt 0.850000 1.000000
vt 0.800000 0.900000
vt 0.800000 0.300000
vt 0.800000 0.200000
vt 0.800000 0.600000
vt 0.800000 0.500000
vt 0.800000 0.800000
vt 0.800000 0.100000
vt 0.800000 0.400000
vt 0.800000 0.700000
vt 0.850000 0.000000
vt 0.750000 1.000000
vt 0.750000 0.000000
vn 0.0000 0.0000 -1.0000
vn 0.0000 0.3003 -0.9538
vn 0.5606 0.3003 -0.7717
vn 0.5878 0.0000 -0.8090
vn 0.0000 0.7944 -0.6074
vn 0.0000 0.9416 -0.3367
vn 0.1979 0.9416 -0.2724
vn 0.3570 0.7944 -0.4914
vn 0.0000 -0.9416 -0.3367
vn 0.0000 -0.7944 -0.6074
vn 0.3570 -0.7944 -0.4914
vn 0.1979 -0.9416 -0.2724
vn 0.0000 -0.3003 -0.9538
vn 0.5606 -0.3003 -0.7717
vn 0.0000 0.5735 -0.8192
vn 0.4815 0.5735 -0.6627
vn 0.0000 -1.0000 0.0000
vn 0.0000 -0.5735 -0.8192
vn 0.4815 -0.5735 -0.6627
vn 0.0000 1.0000 0.0000
vn 0.9071 0.3003 -0.2947
vn 0.9510 0.0000 -0.3090
vn 0.3202 0.9416 -0.1040
vn 0.5777 0.7944 -0.1877
vn 0.5777 -0.7944 -0.1877
vn 0.3202 -0.9416 -0.1040
vn 0.9071 -0.3003 -0.2947
vn 0.7791 0.5735 -0.2531
vn 0.7791 -0.5735 -0.2531
vn 0.3202 0.9416 0.1040
vn 0.7791 -0.5735 0.2531
vn 0.5777 -0.7944 0.1877
vn 0.9071 0.3003 0.2947
vn 0.9510 0.0000 0.3090
vn 0.5777 0.7944 0.1877
vn 0.3202 -0.9416 0.1040
vn 0.9071 -0.3003 0.2947
vn 0.7791 0.5735 0.2531
vn 0.4815 0.5735 0.6627
vn 0.5606 0.3003 0.7717
vn 0.1979 0.9416 0.2724
vn 0.4815 -0.5735 0.6627
vn 0.3570 -0.7944 0.4914
vn 0.5878 0.0000 0.8090
vn 0.3570 0.7944 0.4914
vn 0.1979 -0.9416 0.2724
vn 0.5606 -0.3003 0.7717
vn 0.0000 -0.9416 0.3367
vn 0.0000 -0.3003 0.9538
vn 0.0000 -0.5735 0.8192
vn 0.0000 0.5735 0.8192
vn 0.0000 0.3003 0.9538
vn 0.0000 0.9416 0.3367
vn 0.0000 -0.7944 0.6074
vn 0.0000 0.0000 1.0000
vn 0.0000 0.7944 0.6074
vn -0.5878 0.0000 0.8090
vn -0.5606 -0.3003 0.7717
vn -0.3570 0.7944 0.4914
vn -0.4815 0.5735 0.6627
vn -0.1979 -0.9416 0.2724
vn -0.4815 -0.5735 0.6627
vn -0.5606 0.3003 0.7717
vn -0.1979 0.9416 0.2724
vn -0.3570 -0.7944 0.4914
vn -0.3202 0.9416 0.1040
vn -0.5777 0.7944 0.1877
vn -0.5777 -0.7944 0.1877
vn -0.3202 -0.9416 0.1040
vn -0.9510 0.0000 0.3090
vn -0.9071 -0.3003 0.2947
vn -0.7791 0.5735 0.2531
vn -0.7791 -0.5735 0.2531
vn -0.9071 0.3003 0.2947
vn -0.9071 0.3003 -0.2947
vn -0.9510 0.0000 -0.3090
vn -0.3202 0.9416 -0.1040
vn -0.5777 0.7944 -0.1877
vn -0.5777 -0.7944 -0.1877
vn -0.3202 -0.9416 -0.1040
vn -0.9071 -0.3003 -0.2947
vn -0.7791 0.5735 -0.2531
vn -0.7791 -0.5735 -0.2531
vn -0.1979 0.9416 -0.2724
vn -0.4815 -0.5735 -0.6627
vn -0.3570 -0.7944 -0.4914
vn -0.5606 0.3003 -0.7717
vn -0.5878 0.0000 -0.8090
vn -0.3570 0.7944 -0.4914
vn -0.1979 -0.9416 -0.2724
vn -0.5606 -0.3003 -0.7717
vn -0.4815 0.5735 -0.6627
usemtl yellow
s 1
f 88/1/1 87/2/2 5/3/3 6/4/4
f 85/5/5 84/6/6 2/7/7 3/8/8
f 91/9/9 1/10/10 9/11/11 10/12/12
f 89/13/13 88/1/1 6/4/4 7/14/14
f 86/15/15 85/5/5 3/8/8 4/16/16
f 92/17/17 91/9/9 10/12/12
f 90/18/18 89/13/13 7/14/14 8/19/19
f 87/2/2 86/15/15 4/16/16 5/3/3
f 84/6/6 38/20/20 2/7/7
f 1/10/10 90/18/18 8/19/19 9/11/11
f 6/4/4 5/3/3 14/21/21 15/22/22
f 3/8/8 2/7/7 11/23/23 12/24/24
f 10/12/12 9/11/11 18/25/25 19/26/26
f 7/14/14 6/4/4 15/22/22 16/27/27
f 4/16/16 3/8/8 12/24/24 13/28/28
f 92/29/17 10/12/12 19/26/26
f 8/19/19 7/14/14 16/27/27 17/30/29
f 5/3/3 4/16/16 13/28/28 14/21/21
f 2/7/7 38/31/20 11/23/23
f 9/11/11 8/19/19 17/30/29 18/25/25
f 11/23/23 38/32/20 20/33/30
f 18/25/25 17/30/29 26/34/31 27/35/32
f 15/22/22 14/21/21 23/36/33 24/37/34
f 12/24/24 11/23/23 20/33/30 21/38/35
f 19/26/26 18/25/25 27/35/32 28/39/36
f 16/27/27 15/22/22 24/37/34 25/40/37
f 13/28/28 12/24/24 21/38/35 22/41/38
f 92/42/17 19/26/26 28/39/36
f 17/30/29 16/27/27 25/40/37 26/34/31
f 14/21/21 13/28/28 22/41/38 23/36/33
f 23/36/33 22/41/38 31/43/39 32/44/40
f 20/33/30 38/45/20 29/46/41
f 27/35/32 26/34/31 35/47/42 36/48/43
f 24/37/34 23/36/33 32/44/40 33/49/44
f 21/38/35 20/33/30 29/46/41 30/50/45
f 28/39/36 27/35/32 36/48/43 37/51/46
f 25/40/37 24/37/34 33/49/44 34/52/47
f 22/41/38 21/38/35 30/50/45 31/43/39
f 92/53/17 28/39/36 37/51/46
f 26/34/31 25/40/37 34/52/47 35/47/42
f 92/54/17 37/51/46 47/55/48
f 35/47/42 34/52/47 44/56/49 45/57/50
f 32/44/40 31/43/39 41/58/51 42/59/52
f 29/46/41 38/60/20 39/61/53
f 36/48/43 35/47/42 45/57/50 46/62/54
f 33/49/44 32/44/40 42/59/52 43/63/55
f 30/50/45 29/46/41 39/61/53 40/64/56
f 37/51/46 36/48/43 46/62/54 47/55/48
f 34/52/47 33/49/44 43/63/55 44/56/49
f 31/43/39 30/50/45 40/64/56 41/58/51
f 44/56/49 43/63/55 52/65/57 53/66/58
f 41/58/51 40/64/56 49/67/59 50/68/60
f 92/69/17 47/55/48 56/70/61
f 45/57/50 44/56/49 53/66/58 54/71/62
f 42/59/52 41/58/51 50/68/60 51/72/63
f 39/61/53 38/73/20 48/74/64
f 46/62/54 45/57/50 54/71/62 55/75/65
f 43/63/55 42/59/52 51/72/63 52/65/57
f 40/64/56 39/61/53 48/74/64 49/67/59
f 47/55/48 46/62/54 55/75/65 56/70/61
f 49/67/59 48/74/64 57/76/66 58/77/67
f 56/70/61 55/75/65 64/78/68 65/79/69
f 53/66/58 52/65/57 61/80/70 62/81/71
f 50/68/60 49/67/59 58/77/67 59/82/72
f 92/83/17 56/70/61 65/79/69
f 54/71/62 53/66/58 62/81/71 63/84/73
f 51/72/63 50/68/60 59/82/72 60/85/74
f 48/74/64 38/86/20 57/76/66
f 55/75/65 54/71/62 63/84/73 64/78/68
f 52/65/57 51/72/63 60/85/74 61/80/70
f 61/87/70 60/88/74 69/89/75 70/90/76
f 58/91/67 57/92/66 66/93/77 67/94/78
f 65/95/69 64/96/68 73/97/79 74/98/80
f 62/99/71 61/87/70 70/90/76 71/100/81
f 59/101/72 58/91/67 67/94/78 68/102/82
f 92/103/17 65/95/69 74/98/80
f 63/104/73 62/99/71 71/100/81 72/105/83
f 60/88/74 59/101/72 68/102/82 69/89/75
f 57/92/66 38/106/20 66/93/77
f 64/96/68 63/104/73 72/105/83 73/97/79
f 66/93/77 38/107/20 75/108/84
f 73/97/79 72/105/83 81/109/85 82/110/86
f 70/90/76 69/89/75 78/111/87 79/112/88
f 67/94/78 66/93/77 75/108/84 76/113/89
f 74/98/80 73/97/79 82/110/86 83/114/90
f 71/100/81 70/90/76 79/112/88 80/115/91
f 68/102/82 67/94/78 76/113/89 77/116/92
f 92/117/17 74/98/80 83/114/90
f 72/105/83 71/100/81 80/115/91 81/109/85
f 69/89/75 68/102/82 77/116/92 78/111/87
f 81/109/85 80/115/91 89/13/13 90/18/18
f 78/111/87 77/116/92 86/15/15 87/2/2
f 75/108/84 38/118/20 84/6/6
f 82/110/86 81/109/85 90/18/18 1/10/10
f 79/112/88 78/111/87 87/2/2 88/1/1
f 76/113/89 75/108/84 84/6/6 85/5/5
f 83/114/90 82/110/86 1/10/10 91/9/9
f 80/115/91 79/112/88 88/1/1 89/13/13
f 77/116/92 76/113/89 85/5/5 86/15/15
f 92/119/17 83/114/90 91/9/9
