# Apple ModelIO OBJ File: icosphere
mtllib icosphere.mtl
g 
v 0 -1 0
v 0.7236 -0.447215 0.52572
v -0.276385 -0.447215 0.85064
v 0.7236 -0.447215 -0.52572
v -0.894425 -0.447215 0
v -0.276385 -0.447215 -0.85064
v 0.894425 0.447215 0
v 0.276385 0.447215 0.85064
v -0.7236 0.447215 0.52572
v -0.7236 0.447215 -0.52572
v 0.276385 0.447215 -0.85064
v 0 1 0
vn 0.1876 -0.7947 0.5774
vn 0.6071 -0.7947 0
vn -0.4911 -0.7947 0.3568
vn -0.4911 -0.7947 -0.3568
vn 0.1876 -0.7947 -0.5774
vn 0.9822 -0.1876 0
vn 0.3035 -0.1876 0.9342
vn -0.7946 -0.1876 0.5774
vn -0.7946 -0.1876 -0.5774
vn 0.3035 -0.1876 -0.9342
vn 0.7946 0.1876 0.5774
vn -0.3035 0.1876 0.9342
vn -0.9822 0.1876 0
vn -0.3035 0.1876 -0.9342
vn 0.7946 0.1876 -0.5774
vn 0.4911 0.7947 0.3568
vn -0.1876 0.7947 0.5774
vn -0.6071 0.7947 0
vn -0.1876 0.7947 -0.5774
vn 0.4911 0.7947 -0.3568
usemtl material_1
f 1//1 2//1 3//1
f 2//2 1//2 4//2
f 1//3 3//3 5//3
f 1//4 5//4 6//4
f 1//5 6//5 4//5
f 2//6 4//6 7//6
f 3//7 2//7 8//7
f 5//8 3//8 9//8
f 6//9 5//9 10//9
f 4//10 6//10 11//10
f 2//11 7//11 8//11
f 3//12 8//12 9//12
f 5//13 9//13 10//13
f 6//14 10//14 11//14
f 4//15 11//15 7//15
f 8//16 7//16 12//16
f 9//17 8//17 12//17
f 10//18 9//18 12//18
f 11//19 10//19 12//19
f 7//20 11//20 12//20
s off
