# Blender v3.0.0 OBJ File: ''
# www.blender.org
mtllib house.mtl
o Cube.001
v -3.909265 4.032535 -2.003673
v -3.909267 7.045540 -0.003667
v -4.237187 7.211124 -0.003667
v -4.237187 3.949742 -2.168541
v 4.374559 3.949742 -2.168539
v -4.237187 3.950060 -2.389501
v 4.374561 3.950060 -2.389499
v -3.909267 4.032534 1.996329
v 4.046633 4.032534 1.996329
v 4.374555 3.949742 2.161199
v -4.237189 3.949742 2.161199
v 4.374557 7.211124 -0.003667
v 4.374557 7.535518 -0.003667
v 4.046635 7.045540 -0.003667
v 4.046637 4.032535 -2.003671
v -4.237189 3.955951 2.382159
v 4.374555 3.955951 2.382159
v -4.237187 7.535518 -0.003667
v -3.909267 0.032534 -2.003672
v 4.046635 0.032534 -2.003672
v 4.046635 0.032534 1.996328
v -2.184420 2.835808 1.996328
v -0.885942 2.835808 1.996328
v -2.184420 2.835808 1.868173
v -0.885942 2.835808 1.868174
v -3.909269 0.032534 1.996328
v -2.184420 0.282350 1.996326
v -0.885942 0.282350 1.996328
v -0.885942 0.282350 1.868172
v -2.184420 0.282350 1.868172
v -2.523161 0.336982 1.989100
v -2.523161 0.022916 1.989100
v -2.523161 0.022916 2.592796
v -2.523161 0.336982 2.592796
v -0.581638 0.336982 2.592796
v -0.581638 0.336982 1.989100
v -0.581638 0.022916 1.989100
v -0.581638 0.022916 2.592796
v -3.888545 1.318446 -0.736648
v -3.888545 3.367794 -0.736647
v -4.002939 3.367794 -0.736647
v -4.002939 1.318446 -0.736648
v -4.002939 3.367794 -0.873259
v -4.002939 1.318446 -0.873260
v -3.888545 3.367794 -0.873259
v -3.888545 1.318446 -0.873260
v -3.888545 1.318446 0.838382
v -3.888545 3.367794 0.838383
v -4.002939 3.367794 0.838383
v -4.002939 1.318446 0.838382
v -4.002939 3.367794 0.701769
v -4.002939 1.318446 0.701768
v -3.888545 3.367794 0.701769
v -3.888545 1.318446 0.701768
v -3.888545 1.317584 -0.799066
v -3.888545 1.317584 0.801454
v -4.172595 1.317584 0.832348
v -4.172595 1.317584 -0.866284
v -4.172595 1.454198 0.832348
v -4.172595 1.454198 -0.866284
v -3.888545 1.454198 0.801454
v -3.888545 1.454198 -0.799066
v -3.888545 3.229124 -0.799065
v -3.888545 3.229124 0.801455
v -4.002939 3.229124 0.801455
v -4.002939 3.229124 -0.799065
v -4.002939 3.365736 0.801455
v -4.002939 3.365736 -0.799065
v -3.888545 3.365736 0.801455
v -3.888545 3.365736 -0.799065
v 0.097760 1.110812 1.993310
v 0.097760 3.160160 1.993310
v 0.097760 3.160160 2.107704
v 0.097760 1.110812 2.107704
v -0.038854 3.160160 2.107704
v -0.038854 1.110812 2.107704
v -0.038854 3.160160 1.993310
v -0.038854 1.110812 1.993310
v 2.910119 1.110812 1.993310
v 2.910119 3.160160 1.993310
v 2.910119 3.160160 2.107704
v 2.910119 1.110812 2.107704
v 2.773505 3.160160 2.107704
v 2.773505 1.110812 2.107704
v 2.773505 3.160160 1.993310
v 2.773505 1.110812 1.993310
v 0.072712 1.109952 1.993310
v 2.850483 1.109952 1.993310
v 2.904099 1.109952 2.277360
v -0.043946 1.109952 2.277360
v 2.904099 1.246564 2.277360
v -0.043946 1.246564 2.277360
v 2.850483 1.246564 1.993310
v 0.072712 1.246564 1.993310
v 0.072712 3.021490 1.993310
v 2.850483 3.021490 1.993310
v 2.850483 3.021490 2.107704
v 0.072712 3.021490 2.107704
v 2.850483 3.158102 2.107704
v 0.072712 3.158102 2.107704
v 2.850483 3.158102 1.993310
v 0.072712 3.158102 1.993310
vt 0.797258 0.501196
vt 0.616692 0.500992
vt 0.609823 0.483985
vt 0.805274 0.484205
vt 0.822405 0.045028
vt 0.822405 0.475012
vt 0.811372 0.475012
vt 0.811373 0.045028
vt 0.361302 0.458637
vt 0.361302 0.061401
vt 0.370513 0.045027
vt 0.370514 0.475012
vt 0.609824 0.036055
vt 0.805274 0.035834
vt 0.596339 0.045028
vt 0.576005 0.501007
vt 0.395440 0.501349
vt 0.387411 0.484364
vt 0.582861 0.483995
vt 0.395440 0.018690
vt 0.576005 0.019032
vt 0.582861 0.036045
vt 0.387411 0.035675
vt 0.616693 0.019047
vt 0.797258 0.018843
vt 0.831619 0.061404
vt 0.831617 0.458639
vt 0.381550 0.475012
vt 0.381550 0.045027
vt 0.596339 0.475012
vt 0.000151 0.000151
vt 0.201890 0.000151
vt 0.201890 0.401404
vt 0.000151 0.401404
vt 0.201890 0.603142
vt 0.000151 0.603142
vt 0.201080 0.999849
vt 0.145984 0.914786
vt 0.145373 0.851223
vt 0.446828 0.983048
vt 0.446828 0.783328
vt 0.597267 0.883188
vt 0.353850 0.502273
vt 0.138664 0.909247
vt 0.140566 0.857996
vt 0.002350 0.996230
vt 0.013070 0.919149
vt 0.013689 0.851896
vt 0.223097 0.741735
vt 0.223097 0.614241
vt 0.287930 0.614241
vt 0.287930 0.741735
vt 0.140425 0.857956
vt 0.020809 0.858501
vt 0.018815 0.910823
vt 0.138596 0.909367
vt 0.020634 0.858556
vt 0.018629 0.910779
vt 0.242472 0.382159
vt 0.215480 0.397053
vt 0.222958 0.337432
vt 0.241838 0.355809
vt 0.247108 0.983048
vt 0.247108 0.783328
vt 0.311826 0.352326
vt 0.312460 0.378675
vt 0.331339 0.397053
vt 0.338817 0.337432
vt 0.782757 0.640519
vt 0.782757 0.839480
vt 0.771477 0.839480
vt 0.771477 0.640519
vt 0.758020 0.640519
vt 0.758020 0.839480
vt 0.744564 0.839480
vt 0.744564 0.640519
vt 0.839141 0.640519
vt 0.839141 0.839480
vt 0.827865 0.839480
vt 0.827865 0.640519
vt 0.690697 0.839480
vt 0.690697 0.640519
vt 0.704165 0.640519
vt 0.704166 0.839480
vt 0.726729 0.895322
vt 0.726729 0.908585
vt 0.715450 0.908585
vt 0.715450 0.895322
vt 0.742392 0.879269
vt 0.742392 0.866006
vt 0.753672 0.866006
vt 0.753672 0.879269
vt 0.794035 0.640519
vt 0.794035 0.839480
vt 0.782757 0.839480
vt 0.782757 0.640519
vt 0.758020 0.839480
vt 0.758020 0.640519
vt 0.771477 0.640519
vt 0.771477 0.839480
vt 0.816590 0.839480
vt 0.816590 0.640519
vt 0.827865 0.640519
vt 0.827865 0.839480
vt 0.717634 0.640519
vt 0.717634 0.839480
vt 0.704166 0.839480
vt 0.704166 0.640519
vt 0.753672 0.879269
vt 0.753672 0.892532
vt 0.742392 0.892532
vt 0.742392 0.879269
vt 0.728921 0.908446
vt 0.728921 0.895183
vt 0.740201 0.895183
vt 0.740201 0.908446
vt 0.623753 0.664622
vt 0.623753 0.820010
vt 0.595743 0.823008
vt 0.595743 0.658098
vt 0.631749 0.823008
vt 0.631749 0.987732
vt 0.618278 0.987732
vt 0.618278 0.823008
vt 0.651764 0.658098
vt 0.651764 0.823008
vt 0.623753 0.820010
vt 0.623753 0.664622
vt 0.663756 0.994825
vt 0.663756 0.839480
vt 0.677229 0.839480
vt 0.677229 0.994825
vt 0.715450 0.867568
vt 0.728921 0.867568
vt 0.728921 0.895322
vt 0.715450 0.895322
vt 0.728921 0.867568
vt 0.742392 0.867568
vt 0.742392 0.895183
vt 0.728921 0.895183
vt 0.704168 0.994867
vt 0.704168 0.839480
vt 0.715448 0.839480
vt 0.715450 0.994867
vt 0.690697 0.994688
vt 0.690697 0.839480
vt 0.704168 0.839480
vt 0.704168 0.994688
vt 0.679416 0.994867
vt 0.679416 0.839480
vt 0.690697 0.839480
vt 0.690697 0.994867
vt 0.631749 0.978354
vt 0.631749 0.823008
vt 0.645221 0.823008
vt 0.645221 0.978354
vt 0.579097 0.933116
vt 0.579097 0.919853
vt 0.590372 0.919853
vt 0.590372 0.933116
vt 0.740201 0.921709
vt 0.740201 0.908446
vt 0.751481 0.908446
vt 0.751481 0.921709
vt 0.963516 0.749637
vt 0.963516 0.550676
vt 0.974794 0.550676
vt 0.974794 0.749637
vt 0.946759 0.287004
vt 0.946759 0.485965
vt 0.933288 0.485965
vt 0.933288 0.287004
vt 0.931228 0.783946
vt 0.931228 0.982908
vt 0.919961 0.982908
vt 0.919961 0.783946
vt 0.549252 0.525285
vt 0.549252 0.724246
vt 0.535786 0.724246
vt 0.535786 0.525285
vt 0.533608 0.806475
vt 0.533608 0.793212
vt 0.544888 0.793212
vt 0.544888 0.806475
vt 0.576376 0.973428
vt 0.576376 0.960165
vt 0.587657 0.960165
vt 0.587657 0.973428
vt 0.952239 0.749637
vt 0.952239 0.550676
vt 0.963516 0.550676
vt 0.963516 0.749637
vt 0.960229 0.287004
vt 0.960229 0.485965
vt 0.946759 0.485965
vt 0.946759 0.287004
vt 0.931228 0.982908
vt 0.931228 0.783946
vt 0.942496 0.783946
vt 0.942496 0.982908
vt 0.535786 0.525285
vt 0.535786 0.724246
vt 0.522321 0.724246
vt 0.522321 0.525285
vt 0.544888 0.793212
vt 0.544888 0.779949
vt 0.556169 0.779949
vt 0.556169 0.793212
vt 0.547079 0.737509
vt 0.547079 0.724246
vt 0.558360 0.724246
vt 0.558360 0.737509
vt 0.891951 0.630360
vt 0.891951 0.900041
vt 0.863940 0.905246
vt 0.863940 0.619035
vt 0.870313 0.287004
vt 0.870313 0.573189
vt 0.856842 0.573189
vt 0.856842 0.287004
vt 0.919961 0.619035
vt 0.919961 0.905246
vt 0.891951 0.900041
vt 0.891951 0.630360
vt 0.910727 0.287004
vt 0.910727 0.556571
vt 0.897256 0.556571
vt 0.897256 0.287004
vt 0.533608 0.752334
vt 0.520137 0.752334
vt 0.520137 0.724246
vt 0.533608 0.724246
vt 0.533608 0.724246
vt 0.547079 0.724246
vt 0.547079 0.751936
vt 0.533608 0.751936
vt 0.933288 0.287004
vt 0.933288 0.556684
vt 0.922008 0.556684
vt 0.922008 0.287004
vt 0.883785 0.287004
vt 0.883785 0.556659
vt 0.870313 0.556659
vt 0.870313 0.287004
vt 0.910728 0.556684
vt 0.910727 0.287004
vt 0.922008 0.287004
vt 0.922008 0.556684
vt 0.883785 0.556572
vt 0.883785 0.287004
vt 0.897256 0.287004
vt 0.897256 0.556572
vt 0.908523 0.556572
vt 0.908523 0.569835
vt 0.897256 0.569835
vt 0.520137 0.806614
vt 0.520137 0.793351
vt 0.531414 0.793351
vt 0.531414 0.806614
vn -0.2690 -0.5327 0.8025
vn 0.0000 -1.0000 -0.0014
vn 0.0000 -0.8937 -0.4488
vn 1.0000 -0.0000 0.0000
vn -0.2690 -0.5327 -0.8025
vn 0.2690 -0.5327 -0.8025
vn 0.2690 -0.5327 0.8025
vn -0.0000 -0.8936 0.4488
vn 0.0000 0.5546 0.8321
vn 0.0000 0.5540 -0.8325
vn -1.0000 0.0000 0.0000
vn 0.0000 -0.9996 0.0281
vn 0.0000 -0.0000 -1.0000
vn 0.0000 -0.0000 1.0000
vn 0.0000 -1.0000 0.0000
vn -0.0000 1.0000 0.0000
vn 0.2303 0.0000 -0.9731
vn 0.1081 0.0000 0.9941
vn -0.9250 0.0000 -0.3799
vn 0.9826 0.0000 -0.1855
usemtl Material.001
s 1
f 1/1/1 2/2/1 3/3/1 4/4/1
f 5/5/2 4/6/2 6/7/2 7/8/2
f 8/9/3 9/10/3 10/11/3 11/12/3
f 12/13/4 5/14/4 7/8/4 13/15/4
f 2/16/5 8/17/5 11/18/5 3/19/5
f 9/20/6 14/21/6 12/22/6 10/23/6
f 14/24/7 15/25/7 5/14/7 12/13/7
f 15/26/8 1/27/8 4/6/8 5/5/8
f 16/28/9 17/29/9 13/15/9 18/30/9
f 7/8/10 6/7/10 18/30/10 13/15/10
f 4/4/11 3/3/11 18/30/11 6/7/11
f 10/23/4 12/22/4 13/15/4 17/29/4
f 11/12/12 10/11/12 17/29/12 16/28/12
f 3/19/11 11/18/11 16/28/11 18/30/11
f 19/31/13 1/32/13 15/33/13 20/34/13
f 20/34/4 15/33/4 9/35/4 21/36/4
f 9/35/14 8/37/14 22/38/14 23/39/14
f 1/40/11 8/41/11 2/42/11
f 9/35/4 15/33/4 14/43/4
f 23/39/15 22/38/15 24/44/15 25/45/15
f 8/37/14 26/46/14 27/47/14 22/38/14
f 26/46/14 21/36/14 28/48/14 27/47/14
f 21/36/14 9/35/14 23/39/14 28/48/14
f 29/49/14 25/50/14 24/51/14 30/52/14
f 28/48/11 23/39/11 25/53/11 29/54/11
f 22/38/4 27/47/4 30/55/4 24/56/4
f 27/47/16 28/48/16 29/57/16 30/58/16
f 31/59/11 32/60/11 33/61/11 34/62/11
f 8/41/11 1/40/11 19/63/11 26/64/11
f 35/65/16 36/66/16 31/59/16 34/62/16
f 36/66/13 37/67/13 32/60/13 31/59/13
f 35/65/4 38/68/4 37/67/4 36/66/4
f 34/62/14 33/61/14 38/68/14 35/65/14
f 39/69/14 40/70/14 41/71/14 42/72/14
f 42/73/11 41/74/11 43/75/11 44/76/11
f 44/77/13 43/78/13 45/79/13 46/80/13
f 46/81/4 45/82/4 40/83/4 39/84/4
f 42/85/15 44/86/15 46/87/15 39/88/15
f 43/89/16 41/90/16 40/91/16 45/92/16
f 47/93/14 48/94/14 49/95/14 50/96/14
f 50/97/11 49/98/11 51/99/11 52/100/11
f 52/101/13 51/102/13 53/103/13 54/104/13
f 54/105/4 53/106/4 48/107/4 47/108/4
f 50/109/15 52/110/15 54/111/15 47/112/15
f 51/113/16 49/114/16 48/115/16 53/116/16
f 55/117/15 56/118/15 57/119/15 58/120/15
f 58/121/11 57/122/11 59/123/11 60/124/11
f 60/125/16 59/126/16 61/127/16 62/128/16
f 62/129/4 61/130/4 56/131/4 55/132/4
f 58/133/17 60/134/17 62/135/17 55/136/17
f 59/137/18 57/138/18 56/139/18 61/140/18
f 63/141/15 64/142/15 65/143/15 66/144/15
f 66/145/11 65/146/11 67/147/11 68/148/11
f 68/149/16 67/150/16 69/151/16 70/152/16
f 70/153/4 69/154/4 64/155/4 63/156/4
f 66/157/13 68/158/13 70/159/13 63/160/13
f 67/161/14 65/162/14 64/163/14 69/164/14
f 71/165/4 72/166/4 73/167/4 74/168/4
f 74/169/14 73/170/14 75/171/14 76/172/14
f 76/173/11 75/174/11 77/175/11 78/176/11
f 78/177/13 77/178/13 72/179/13 71/180/13
f 74/181/15 76/182/15 78/183/15 71/184/15
f 75/185/16 73/186/16 72/187/16 77/188/16
f 79/189/4 80/190/4 81/191/4 82/192/4
f 82/193/14 81/194/14 83/195/14 84/196/14
f 84/197/11 83/198/11 85/199/11 86/200/11
f 86/201/13 85/202/13 80/203/13 79/204/13
f 82/205/15 84/206/15 86/207/15 79/208/15
f 83/209/16 81/210/16 80/211/16 85/212/16
f 87/213/15 88/214/15 89/215/15 90/216/15
f 90/217/14 89/218/14 91/219/14 92/220/14
f 92/221/16 91/222/16 93/223/16 94/224/16
f 94/225/13 93/226/13 88/227/13 87/228/13
f 90/229/19 92/230/19 94/231/19 87/232/19
f 91/233/20 89/234/20 88/235/20 93/236/20
f 95/237/15 96/238/15 97/239/15 98/240/15
f 98/241/14 97/242/14 99/243/14 100/244/14
f 100/245/16 99/246/16 101/247/16 102/248/16
f 102/249/13 101/250/13 96/251/13 95/252/13
f 98/253/11 100/254/11 102/255/11 95/252/11
f 99/256/4 97/257/4 96/258/4 101/259/4
